<svg width="711" height="683" viewBox="0 0 711 683" fill="none" xmlns="http://www.w3.org/2000/svg">
<path d="M706.825 309.326C709.466 321.604 709.968 334.157 710.26 346.582C711.067 380.726 707.023 414.377 697.131 447.17C679.653 505.104 649.124 555.035 604.873 596.41C598.918 601.98 592.791 607.437 585.895 611.904C580.549 609.648 575.977 611.389 571.088 613.932C551.304 624.221 532.496 636.257 512.603 646.342C507.844 648.727 502.917 650.76 497.862 652.426C495.779 653.123 493.668 654.271 491.362 653.09C489.551 649.096 492.96 648.177 495.219 646.763C503.175 641.777 512.018 638.445 519.935 633.31C541.585 619.303 562.123 603.937 580.35 585.623C593.775 572.761 606.223 559.041 617.277 544.065C620.308 539.957 622.072 535.026 625.727 531.352C628.064 529.218 630.051 526.845 630.965 523.724C634.196 515.48 639.516 508.407 643.829 500.772C655.1 480.824 661.713 459.216 667.121 437.141C667.886 434.024 668.054 430.593 670.73 428.222C672.471 427.079 674.613 427.184 676.473 426.406C679.578 425.105 681.396 422.791 681.225 419.39C681.068 416.281 678.821 414.976 676.053 414.282C674.35 413.862 672.309 413.862 671.783 411.55C673.509 397.424 674.333 383.246 674.743 369.039C678.073 356.335 676.845 343.563 675.901 330.672C674.621 313.251 671.441 296.225 667.115 279.384C661.587 257.766 653.31 236.946 642.486 217.434C638.282 212.787 636.445 206.737 633.155 201.543C624.367 184.883 613.899 169.333 602.355 154.459C593.077 142.507 582.807 131.438 572.53 120.375C561.791 108.184 549.251 97.941 536.958 87.4522C507.543 62.3567 473.807 45.1247 437.213 33.1413C434.72 32.3257 431.267 32.2837 430.886 28.4182C432.658 26.7744 434.706 27.302 436.711 27.7224C490.219 38.9449 537.768 62.0119 578.973 98.2353C594.414 111.812 609.586 125.513 622.358 141.696C635.505 158.356 646.873 176.097 655.59 195.534C654.555 191.64 653.117 187.864 651.298 184.269C649.427 180.618 647.779 176.847 645.599 173.36C643.314 169.705 641.334 165.879 639.083 162.198C624.633 138.518 606.976 116.95 586.613 98.1092C584.301 95.9589 581.264 94.1154 580.984 90.3781C584.558 87.7612 585.995 91.3639 588.013 92.9194C592.314 96.2342 594.876 101.695 600.688 103.16C628.434 129.353 649.841 160.065 667.275 193.966C681.471 221.569 691.21 250.561 698.575 280.517C700.095 286.696 700.74 293.025 701.278 299.369C701.623 303.439 701.844 307.758 706.825 309.326Z" fill="#B677B3"/>
<path d="M6.36499 288.317C10.817 259.245 20.0152 231.606 32.0617 204.898C52.5727 159.426 82.0151 120.369 119.321 87.4963C151.832 58.8485 188.634 36.9648 229.607 22.4045C240.367 18.5789 251.098 14.6482 262.365 12.4915C263.475 15.283 265.362 13.0486 266.684 12.9287C269.928 12.6303 273.284 8.99174 276.162 13.6413C274.663 15.6214 272.36 15.882 270.192 16.4012C229.853 26.0703 192.84 42.575 160.791 69.3857C156.761 72.7489 153.634 77.3732 148.24 78.9938C139.769 82.9624 132.645 89.1317 126.768 95.9064C104.929 121.073 83.3519 146.465 67.5976 176.242C53.012 203.809 42.4538 232.638 37.1022 263.85C38.5883 264.529 42.0166 262.555 42.107 266.311C39.9293 268.321 37.0896 268.722 34.4095 269.515C31.2335 270.076 27.9943 270.566 24.8098 270.211C19.3258 269.58 17.0766 272.161 16.6962 277.273C16.5343 279.466 16.1644 281.687 14.8044 283.56C12.3052 285.698 10.8947 289.784 6.36499 288.317Z" fill="#D7A0C4"/>
<path d="M6.36494 288.318C9.78696 288.156 10.8379 284.502 13.6168 283.393C15.9584 285.808 15.0881 288.694 14.8191 291.5C12.9273 310.55 8.63298 329.363 9.20471 348.646C9.16057 405.82 22.8676 459.387 50.7082 509.448C64.7662 534.728 82.1811 557.404 101.435 578.8C122.205 594.737 142.447 611.345 163.111 627.425C179.757 640.378 198.576 647.518 218.604 652.308C224.943 653.824 231.159 656.109 237.795 656.254C239.724 656.519 241.578 657.013 243.306 657.935C243.866 658.27 244.316 658.762 244.599 659.35C244.473 666.345 244.519 666.066 251.956 667.308C262.592 669.082 273.169 671.226 283.725 673.446C285.043 673.723 286.878 673.927 286.832 675.712C286.798 677.063 285.226 677.337 284.04 677.671C275.789 677.626 267.562 676.781 259.474 675.148C247.092 672.124 234.301 670.959 222.059 667.136C220.487 666.646 222.69 669.284 220.92 669.343C217.374 670.444 214.456 668.447 211.612 667.079C201.456 662.186 190.944 658.04 181.031 652.634C179.835 651.709 178.117 651.129 178.609 649.061C178.819 649.021 179.013 648.989 179.21 648.941C179.408 648.893 179.738 648.869 179.778 648.754C180.234 647.493 178.979 647.591 178.454 647.335C135.363 626.29 100.437 595.416 70.7401 558.161C36.4926 515.19 15.374 466.273 5.42742 412.542C0.960719 388.418 -0.611524 363.879 0.208246 339.282C0.363793 334.595 1.01537 329.922 1.43787 325.243C4.33229 318.924 5.1941 312.366 3.75005 305.539C4.36172 299.765 4.42061 293.898 6.36494 288.318Z" fill="#D59EC7"/>
<path d="M491.226 652.626C505.666 649.13 518.552 642.198 531.128 634.574C546.302 625.372 562.062 617.245 577.712 608.899C582.239 606.483 583.202 610.895 585.895 611.911C570.939 624.815 554.117 634.885 536.895 644.384C535.014 645.423 531.281 645.174 532.082 649.141C532.267 651.342 530.526 652.037 529.095 652.981C522.762 655.361 516.817 658.591 510.753 661.538C494.639 669.368 477.235 672.067 459.801 674.581C436.114 677.997 412.419 681.44 388.403 681.633C376.574 680.98 364.781 683.849 353.055 682.651C341.283 681.448 329.468 682.588 317.771 680.969C316.655 680.265 315.721 679.439 317.161 678.236C318.633 676.998 320.562 676.965 322.338 676.555C341.857 672.025 360.847 665.915 379.092 657.559C387.825 654.65 396.988 655.615 405.905 655.092C420.372 654.24 434.893 653.742 449.403 653.448C461.34 651.836 473.365 652.245 485.357 651.829C487.364 651.756 489.431 651.167 491.226 652.626Z" fill="#D99DC6"/>
<path d="M706.825 309.327C703.134 311.27 701.093 310.467 700.707 306.013C698.655 282.521 692.509 259.939 684.521 237.908C670.522 199.268 651.472 163.398 624.964 131.685C617.75 123.067 610.795 114.277 602.067 107.079C601.046 106.239 600.535 104.767 599.789 103.605C592.993 99.63 588.261 93.2778 582.317 88.2961C572.917 80.42 562.903 73.4162 553.152 66.0467C537.568 54.2756 520.387 45.214 502.705 37.0541C497.725 34.7567 497.803 34.5843 498.711 31.1875C520.977 39.8666 541.276 52.14 560.917 65.5338C577.361 76.7457 592.4 89.7885 606.393 103.851C638.03 135.645 663.146 171.997 680.961 213.315C692.425 239.912 700.299 267.534 705.463 295.965C706.247 300.352 706.386 304.867 706.825 309.327Z" fill="#D9A2C9"/>
<path d="M498.704 31.1788C497.49 34.5125 500.676 34.2183 502.116 34.9624C510.581 39.3765 519.319 43.3009 527.647 47.9568C539.109 54.3657 550.024 61.5965 560.597 69.4894C566.508 73.9036 573.104 78.1075 578.464 82.7886C585.838 89.2123 594.019 95.3101 599.786 103.598C596.583 105.349 595.755 102.064 593.987 100.828C589.35 97.5928 587.206 91.2365 580.745 90.2674C578.044 91.2953 576.583 89.2165 574.918 87.846C542.442 60.989 506.576 39.9503 466.887 25.72C445.878 18.1578 424.183 12.6597 402.108 9.30353C399.512 8.91046 396.719 8.86632 395.071 6.24095C396.347 3.06696 398.871 3.27926 401.532 3.85941C414.737 5.96138 427.996 7.64297 440.974 11.1806C460.69 16.5638 480.146 22.5481 498.704 31.1788Z" fill="#C48DBE"/>
<path d="M401.547 3.85629C399.472 4.48688 397.211 4.64663 395.498 6.2105C393.488 8.36083 390.972 7.60832 388.574 7.3792C357.706 4.43644 326.874 5.16793 296.087 8.41548C290.214 9.03556 284.29 9.94992 279.271 13.5926C278.239 14.3409 277.015 14.549 275.864 13.6578C271.353 11.2931 267.374 14.5511 263.117 14.8391C262.424 14.8854 261.341 15.5349 261.07 14.3515C260.874 13.5107 263.47 14.2337 262.373 12.4912C276.667 7.76176 291.448 5.47692 306.304 3.35392C331.114 -0.226701 356.254 -0.943275 381.227 1.21831C388.036 1.81107 394.945 1.66813 401.547 3.85629Z" fill="#E6C0D6"/>
<path d="M3.76701 305.549C7.8049 310.308 6.40078 322.316 1.45483 325.253C1.69026 318.623 2.06651 312.008 3.76701 305.549Z" fill="#D7A0C4"/>
<path d="M573.823 119.785C596.19 142.413 615.568 167.334 631.417 194.962C632.51 196.854 634.244 198.517 634.131 200.978C638.017 216.533 639.308 232.508 639.453 248.365C639.697 275.287 635.73 301.77 626.21 327.189C625.489 329.119 624.653 330.992 622.704 332.045C619.799 333.035 617.51 331.45 615.347 330.004C599.362 319.284 581.697 314.962 562.607 315.937C557.213 315.408 551.971 317.447 546.579 316.917C540.708 317.741 540.811 308.839 534.98 309.724C529.002 310.632 527.375 305.175 523.92 302.401C523.136 301.77 522.474 300.978 521.774 300.242C517.49 295.735 517.126 292.69 520.491 287.229C521.578 285.465 522.528 283.737 522.69 281.646C523.306 279.411 524.752 277.652 526.169 275.93C539.586 259.667 548.721 241.162 556.11 221.504C560.065 210.973 563.887 200.484 566.523 189.554C571.568 168.083 573.308 145.968 571.685 123.972C571.57 122.291 571.09 120.119 573.823 119.785Z" fill="#3D295C"/>
<path d="M275.855 13.6577C283.99 6.36382 294.491 6.33229 304.276 5.39271C328.56 3.06582 352.979 3.63125 377.349 4.02012C383.409 4.11681 389.448 5.44946 395.498 6.21248C410.642 9.43481 425.936 11.8479 440.921 15.9446C488.426 28.9306 531.146 51.1233 569.674 81.623C573.348 84.5321 577.064 87.3845 580.761 90.2642C599.484 108.364 617.887 126.712 632.167 148.758C641.191 162.69 650.158 176.603 656.34 192.094C657.391 194.739 658.457 197.402 657.181 200.374C654.709 200.143 654.602 197.993 653.929 196.446C638.984 162.013 616.234 133.481 588.476 108.488C566.146 88.3913 542.531 70.3143 515.537 56.8617C488.684 43.4889 460.873 33.0589 431.038 28.6574C429.133 30.0132 427.067 29.3952 425.098 29.0126C410.193 26.1224 395.125 24.4219 380.044 22.8181C377.778 22.5764 375.667 21.7671 373.467 21.3467C370.152 20.3882 367.079 18.7466 363.735 17.8217C365.467 18.3871 367.373 18.6625 368.641 21.1323C360.298 24.9159 351.795 20.3609 343.511 21.9605C335.364 23.5328 326.931 23.5054 318.614 24.0625C302.517 24.8402 287.052 28.876 271.634 33.1556C233.322 43.7769 198.557 61.6962 168.173 87.0461C136.423 113.546 112.618 146.055 101.33 186.625C100.782 188.597 100.359 190.619 98.9297 192.229C93.4099 194.455 93.6222 190.409 93.2166 187.027C94.6627 163.083 102.236 141.056 113.883 120.234C121.618 106.401 130.897 93.7745 141.972 82.449C143.845 80.5363 145.699 78.6424 148.358 77.8415C160.339 68.0127 172.045 57.8307 185.231 49.5342C213.227 31.926 243.602 20.4555 275.855 13.6577Z" fill="#F5E4EE"/>
<path d="M373.191 19.9668C392.479 22.8213 412.078 23.641 431.038 28.6627C441.468 32.7069 451.969 36.5808 462.317 40.831C492.401 53.1843 519.977 69.6407 544.116 91.5769C554.222 100.76 565.346 108.889 573.827 119.783C573.857 129.032 573.69 138.3 573.962 147.546C574.399 162.409 570.781 176.64 567.683 190.965C566.735 191.999 565.48 192.049 564.32 191.715C552.349 188.27 540.185 185.285 529.904 177.678C524.725 167.139 521.189 156.137 520.639 144.318C520.428 140.011 522.444 136.841 526.02 134.6C530.184 131.99 534.369 129.412 538.459 127.365C532.92 128.94 527.739 133.577 520.956 131.428C519.239 130.43 518.577 128.696 517.803 127.014C495.911 79.7617 457.687 54.4455 407.66 44.8962C399.041 43.2504 390.077 44.0554 381.641 41.1694C380.17 39.0044 380.857 36.9655 381.997 34.9539C382.959 32.896 385.53 33.5729 387.102 32.1961C383.998 28.4399 379.827 26.8949 375.741 25.2007C374.234 24.6053 372.794 23.8528 371.445 22.9558C370.453 22.2727 368.983 21.373 369.58 20.2001C370.307 18.7455 371.901 19.0272 373.191 19.9668Z" fill="#82488C"/>
<path d="M671.176 428.701C666.949 442.898 663.918 457.419 658.928 471.426C653.351 487.082 645.515 501.51 636.867 515.589C635.074 518.51 633.565 521.609 631.924 524.627C627.261 521.684 622.736 521.054 618.5 525.424C612.615 529.188 606.292 525.844 600.213 526.555C597.951 523.204 600.61 520.696 602.01 518.3C609.218 505.968 615.883 493.386 621.542 480.254C624.045 474.44 626.219 468.525 628.319 462.566C632.327 450.528 635.32 438.24 637.519 425.752C638.084 422.536 638.482 419.276 640.323 416.451C646.209 411.226 648.029 403.724 649.406 396.745C651.144 387.917 656.342 380.175 656.262 370.771C656.229 366.716 660.479 365.821 664.347 366.762C668.399 363.483 669.791 358.865 670.699 354.069C671.273 351.027 672.046 348.118 674.125 345.749C675.466 344.223 676.521 344.597 677.173 346.453C677.593 353.789 677.431 361.091 676.307 368.356C676.349 381.846 675.901 395.307 673.665 408.644C673.433 410.021 672.891 411.345 672.494 412.695C669.648 417.826 670.966 423.306 671.176 428.701Z" fill="#503069"/>
<path d="M621.973 331.416C627.932 321.192 630.03 309.646 632.624 298.392C636.29 282.474 638.076 266.118 637.668 249.851C637.309 235.263 636.683 220.518 633.324 206.13C632.903 204.358 632.483 202.466 634.122 200.957C638.022 205.277 639.531 210.977 642.659 215.742C651.785 233.378 658.634 251.896 664.202 270.928C664.82 273.03 665.581 275.296 663.941 277.379C658.76 275.647 656.504 271.422 656.794 263.991C656.584 263.968 656.124 264.178 656.164 264.557C657.166 276.508 653.166 288.218 655.174 300.378C656.405 307.851 655.09 315.822 652.035 323.134C650.757 326.115 650.852 329.398 649.986 332.467C644.126 341.506 641.629 352.041 636.924 361.59C632.374 370.839 631.005 371.341 622 366.439C617.88 364.199 612.962 363.526 609.475 360.079C608.48 356.253 611.156 353.548 612.51 350.473C615.356 343.98 617.74 337.234 621.973 331.416Z" fill="#2D1C40"/>
<path d="M491.226 652.625C477.386 654.628 463.381 653.716 449.501 655.006C450.739 649.936 451.507 644.877 449.184 639.872C450.426 637.465 452.911 637.56 455.021 637.14C484.468 631.277 510.383 617.995 533.94 599.724C536.031 598.102 537.969 596.227 540.782 595.888C553.705 594.736 566.661 593.73 577.682 585.673C578.168 585.301 578.723 585.03 579.315 584.877C579.907 584.723 580.524 584.69 581.129 584.779C581.802 585.238 581.877 585.778 581.354 586.4C569.251 600.189 554.239 610.56 539.872 621.692C526.419 632.126 511.524 640.213 496.361 647.835C494.202 648.925 491.684 649.686 491.226 652.625Z" fill="#5C3A7B"/>
<path d="M581.354 586.405C581.337 585.955 581.32 585.505 581.302 585.055C580.356 583.302 582.393 582.093 582.09 579.994C576.442 580.49 570.878 581.726 565.247 582.371C562.84 582.644 560.305 583.384 558.632 580.708C558.502 576.475 561.877 574.175 564.164 571.51C575.522 558.279 585.986 544.305 595.484 529.681C596.503 528.11 596.98 525.647 599.74 525.952C604.133 525.21 608.465 523.94 612.951 525.819C615.219 526.769 616.722 524.979 618.122 523.461C620.213 527.177 622.923 530.269 626.877 532.1C615.417 550.629 601.359 567.039 585.903 582.306C584.461 583.744 582.876 585.045 581.354 586.405Z" fill="#5E3A7B"/>
<path d="M663.842 277.239C659.373 257.989 652.052 239.721 644.653 221.48C643.895 219.609 643.325 217.665 642.667 215.754C645.028 216.355 645.54 218.543 646.427 220.313C659.855 247.113 669.564 275.227 674.594 304.762C677.537 322.028 679.294 339.514 678.588 357.127C678.437 360.967 677.666 364.758 676.303 368.351L675.925 345.229C674.579 343.993 674.068 342.341 673.612 340.653C672.156 324.889 670.419 309.17 666.413 293.798C665.803 288.243 662.585 283.087 663.842 277.239Z" fill="#9B5EA2"/>
<path d="M671.176 428.702C668.345 423.096 666.737 417.591 672.494 412.691C679.809 412.373 683.143 414.505 683.147 419.508C683.153 425.309 678.796 428.655 671.176 428.702Z" fill="#F2E7F2"/>
<path d="M626.885 532.104C620.514 532.722 618.278 529.161 618.13 523.463C625.546 518.723 627.379 518.874 631.924 524.621C631.507 527.965 629.456 530.21 626.885 532.104Z" fill="#F6F0F7"/>
<path d="M697.585 320.323C694.865 320.157 693.749 318.513 693.894 316.312C694.039 314.112 695.433 312.724 697.924 312.813C700.494 312.905 701.655 314.57 701.497 316.708C701.339 318.845 699.731 320.195 697.585 320.323Z" fill="#F7F1F7"/>
<path d="M614.494 563.263C614.395 565.699 613.002 567.017 611.196 567.294C609.062 567.62 607.768 565.98 607.793 564.013C607.818 562.046 609.264 560.7 611.301 560.606C613.193 560.517 614.074 561.858 614.494 563.263Z" fill="#F5EBF7"/>
<path d="M148.368 77.8435C127.279 99.1617 110.932 123.496 101.54 152.153C97.9271 163.182 95.5666 174.528 94.7595 186.15C94.8162 190.774 93.3154 193.973 88.1236 194.915C84.3106 195.607 85.1093 200.87 81.8176 202.415C80.2369 201.894 79.9405 200.395 79.3226 199.134C78.6226 197.702 78.1119 195.51 76.1003 196.162C73.8617 196.883 74.4859 199.163 74.7991 200.954C75.2531 203.55 76.5459 205.999 76.0771 208.763C75.3667 214.945 72.5164 220.475 70.7318 226.327C68.6298 233.198 67.0092 240.213 66.4458 247.322C65.8993 254.203 63.6482 259.429 57.0206 262.187C52.5245 265.588 47.526 267.047 41.9095 266.096C40.0387 263.635 37.7749 265.787 35.2756 265.581C38.4538 245.098 43.8454 225.295 51.6963 206.247C65.3591 173.118 84.237 143.23 107.537 115.931C118.274 103.353 128.408 90.3902 141.886 80.5172C143.931 79.0206 145.61 77.318 148.368 77.8435Z" fill="#C386B4"/>
<path d="M7.50006 349.919C6.56258 332.964 9.7933 316.392 12.0613 299.728C12.7991 294.313 13.1124 288.839 13.6168 283.393C13.785 283.021 13.9847 282.66 14.1192 282.275C15.6305 277.93 13.8186 271.082 17.6547 269.413C22.4598 267.311 28.7762 268.705 34.439 268.589C37.4742 273.562 34.4957 278.605 34.6261 283.616C33.4532 302.553 31.099 321.473 33.9955 340.451C34.336 342.671 34.9603 344.865 34.4642 347.121C32.7091 350.755 30.6428 349.334 28.8856 347.245C26.8992 344.886 26.8214 341.99 27.3343 339.06C27.7148 336.87 28.4357 334.677 27.4121 331.673C24.6396 335.642 24.5849 340.041 23.0946 343.85C21.7556 347.272 20.6311 350.801 19.3111 354.249C18.5943 356.14 17.909 358.726 15.4623 358.369C13.0156 358.011 13.127 355.375 13.0072 353.351C12.8874 351.327 13.6 349.248 12.074 347.218C9.94886 346.949 10.0456 350.93 7.50006 349.919Z" fill="#CC92BE"/>
<path d="M33.2704 283.336C32.5999 278.336 34.479 273.539 34.4412 268.589C36.6356 266.869 39.2127 266.295 41.9137 266.096C46.7924 264.193 52.2618 264.16 56.863 261.381C58.6328 259.783 60.5309 258.684 63.0049 259.783C64.1631 263.407 62.7947 267.37 65.0838 270.995C66.5404 273.308 63.9487 275.063 62.1557 276.292C54.3784 281.627 45.6889 285.23 36.9489 288.507C31.8221 290.43 32.438 286.565 33.2704 283.336Z" fill="#995897"/>
<path d="M7.5001 349.919C7.98145 349.549 8.694 349.276 8.89999 348.788C9.6525 347.005 8.26942 343.489 11.8596 344.058C14.8297 344.529 14.7477 347.579 14.8486 350.047C14.9516 352.588 13.3919 355.302 15.9732 358.022C19.1934 351.26 21.4152 344.359 23.389 337.389C24.3832 333.889 25.1273 328.228 28.2928 328.922C31.2629 329.572 29.6486 335.295 28.9823 338.801C28.1625 343.115 27.8661 347.062 33.2514 348.62C35.3534 348.237 35.6729 349.91 35.8705 351.22C36.8437 357.694 38.4096 364.057 39.5888 369.957C43.5258 355.968 48.2217 341.624 53.5943 327.497C54.4351 325.265 55.1225 322.696 58.1094 322.189C63.0091 323.697 62.1977 327.919 62.0611 331.377C61.3401 349.738 66.841 366.455 74.9567 382.573C76.9935 386.621 79.8291 390.085 82.3641 393.787C82.2316 405.587 82.032 417.384 81.9857 429.186C81.95 438.572 83.0367 447.865 83.6673 457.187C86.9885 481.872 92.2854 506.028 103.094 528.681C109.692 545.36 119.638 560.129 129.381 575.036C130.707 577.065 134.726 579.547 130.279 582.603C120.265 583.696 110.287 584.43 100.731 580.136C90.8519 570.687 82.7508 559.746 74.4943 548.949C45.8696 511.544 26.9245 469.511 15.6095 423.95C12.3157 410.687 10.8611 397.131 9.74289 383.485C8.81171 372.294 6.99352 361.194 7.5001 349.919Z" fill="#B571AF"/>
<path d="M378.102 658.828C377.444 660.556 375.939 661.01 374.366 661.655C355.646 669.342 336.449 675.465 316.615 679.551C312.993 683.114 308.856 679.946 304.972 680.327C299.517 680.861 294.123 678.885 288.591 679.001C286.846 679.038 284.807 678.736 284.377 676.335C285.961 675.732 286.834 675.202 284.265 674.898C271.412 673.378 258.964 669.523 246.037 668.337C242.144 667.982 238.324 666.836 243.342 662.124C243.916 661.584 243.697 660.203 243.846 659.213C246.415 656.44 249.625 657.228 252.763 657.584C255.342 658.407 258.001 658.424 260.675 658.424C278.319 658.412 295.963 658.412 313.609 658.424C316.289 658.424 318.937 658.332 321.512 657.495C331.341 656.497 341.191 657.006 351.036 657.1C357.763 656.768 364.489 656.955 371.215 656.989C373.631 657.008 376.145 656.936 378.102 658.828Z" fill="#BA73B3"/>
<path d="M100.723 580.127C111.06 581.598 121.467 581.388 131.863 581.371C135.321 581.359 136.534 584.434 138.18 586.46C145.537 595.522 154.197 603.287 162.432 611.474C184.047 628.384 206.961 643.104 232.485 653.513C234.511 654.339 237.484 654.428 237.74 657.677C209.086 653.028 181.8 645.292 158.777 626.162C139.788 610.381 120.101 595.44 100.723 580.127Z" fill="#6F3B8B"/>
<path d="M237.74 657.676C223.186 650.762 208.102 644.824 194.553 636.006C183.133 628.58 171.622 621.223 161.438 612.063C164.591 607.821 168.112 610.846 170.897 612.166C179.221 616.124 187.77 619.5 196.354 622.781C213.801 629.448 231.995 633.232 250.32 636.475C260.513 639.494 270.815 642.035 281.339 643.622C283.363 643.929 285.354 644.44 286.954 645.861C289.175 650.065 286.804 652.08 283.201 651.382C277.621 650.302 272.048 652.507 266.968 651.519C259.09 649.987 253.044 651.128 247.867 657.266C246.669 658.687 244.363 657.968 242.722 658.781L237.74 657.676Z" fill="#2D3362"/>
<path d="M242.713 658.786C247.878 656.991 250.442 651.719 255.208 649.42C257.127 648.495 259.071 644.497 261.276 649.748C261.73 650.834 266.661 650.563 269.373 650.063C273.745 649.258 277.85 648.014 282.344 650.044C284.808 651.158 287.267 650.271 287.015 646.645C288.957 644.875 291.263 645.508 293.453 645.76C311.339 647.824 329.306 648.728 347.264 649.712C349.502 649.834 352.292 649.594 353.359 651.787C354.671 654.471 353.002 656.882 351.009 658.851L321.735 659.062C310.769 660.094 299.776 659.467 288.797 659.465C276.593 659.465 264.376 660.054 252.179 659.11L243.838 659.207C243.464 659.078 243.088 658.938 242.713 658.786Z" fill="#311F4B"/>
<path d="M351.013 658.852C351.224 657.654 351.163 656.306 351.709 655.278C353.391 652.144 352.23 651.566 349.128 651.514C330.565 651.207 312.091 649.445 293.615 647.797C291.397 647.598 289.211 647.032 287.01 646.635C274.668 643.865 261.997 642.448 250.058 637.994C247.895 636.245 246.716 633.876 245.934 631.295C243.085 621.876 240.468 612.377 239.838 602.521C239.417 596.064 237.78 591.605 230.474 589.568C221.435 587.046 212.817 582.954 205.645 576.515C202.282 573.505 198.746 570.63 197.96 565.774C198.624 563.882 200.272 562.817 201.605 561.469C202.105 561.12 202.656 560.605 203.209 560.664C214.614 561.877 224.426 556.649 234.621 552.969C235.773 552.548 236.956 552.284 238.163 552.82C241.917 558.848 242.997 565.547 243.169 572.5C243.228 574.893 242.913 577.289 243.203 579.677C243.331 580.492 244.609 579.574 243.834 579.864C243.624 579.946 243.485 579.801 243.462 579.426C243.073 572.86 243.603 566.466 247.035 560.624C250.711 560.706 253.812 562.838 257.318 563.544C258.745 565.564 260.731 566.077 263.142 566.144C276.858 566.535 290.569 566.564 304.276 566.02C312.495 565.698 314.01 567.47 312.264 575.733C311.44 579.641 309.951 583.542 311.812 587.996C317.34 584.843 320.697 580.37 323.322 575.195C324.892 572.101 326.145 568.774 329.044 566.556C332.726 563.737 338.049 563.239 339.688 565.873C342.746 570.789 337.903 571.891 334.544 574.411C340.01 574.926 342.353 577.823 342.952 582.434C343.329 585.354 345.853 586.575 347.757 588.436C354.194 594.718 362.913 593.218 370.448 595.637C375.913 597.388 381.648 598.285 386.718 601.144C389.902 602.939 393.087 602.071 396.296 601.379C396.696 601.316 397.185 601.146 397.486 601.323C407.861 607.467 417.196 602.229 426.687 598.672C432.127 597.487 437.68 598.184 443.185 597.59C457.502 596.043 470.24 589.938 483.261 584.587C489.357 585.638 495.85 584.896 501.282 589.028C503.4 590.64 505.919 591.675 506.663 594.561C506.873 595.889 506.35 596.997 505.599 598.031C497.231 605.092 487.018 609.197 477.958 615.162C462.256 625.5 445.188 633.548 430.874 643.417C436.08 642.067 442.264 638.313 449.514 640.447C454.458 645.311 453.527 650.158 449.476 654.999C429.484 655.892 409.493 656.867 389.494 657.605C385.631 657.746 382.007 659.684 378.076 658.82L351.013 658.852Z" fill="#42285F"/>
<path d="M443.982 663.52C443.221 667.217 441.855 669.344 439.017 669.159C437.302 669.048 436.141 666.412 436.587 665.376C438.004 662.111 441.079 664.531 443.982 663.52Z" fill="#836396"/>
<path d="M523.415 282.164C525.608 285.052 522.844 286.528 521.553 288.304C518.688 292.249 518.762 295.72 522.623 298.984C524.779 300.806 527.523 302.482 528.639 304.87C530.53 308.91 533.263 308.802 536.597 307.909C538.64 307.363 540.477 307.329 540.559 309.969C540.666 313.387 543.229 314.228 545.581 315.403C545.808 317.809 543.792 317.99 542.358 318.238C537.169 319.138 534.148 322.509 531.928 326.877C524.782 340.937 519.508 355.794 513.593 370.371C511.88 374.592 513.011 379.29 512.769 383.765C512.617 386.548 513.399 389.569 510.972 391.851C508.607 391.866 507.398 389.846 505.62 388.808C503.699 375.605 501.181 362.422 504.748 349.08C502.738 355.34 504.159 362.113 501.523 368.255C490.654 378.081 480.644 388.831 469.756 398.62C461.706 405.857 452.059 410.212 440.734 409.34C438.275 409.149 435.841 409.008 433.821 407.36C423.929 393.108 411.575 381.8 395.26 375.265C392.622 375.528 391.056 370.5 387.794 373.793C380.603 376.167 372.939 376.629 365.845 379.357C362.459 380.154 358.984 380.808 355.869 382.327C350.912 384.743 347.146 383.799 343.339 379.79C331.902 367.769 317.237 365.566 301.592 366.838C297.552 367.166 293.638 368.826 289.482 368.002C286.63 365.32 289.52 364.639 291.105 364.036C295.706 362.289 300.541 361.274 305.337 360.231C328.148 355.273 350.873 355.113 373.271 362.373C378.106 363.941 380.742 362.611 383.319 358.438C395.151 339.287 408.063 320.748 415.676 299.293C416.307 297.527 417.207 295.917 419.195 295.318C419.811 295.306 420.517 295.297 420.948 295.715C430.361 304.815 441.791 309.961 454.37 312.861C456.755 315.207 459.154 314.333 461.556 312.861C468.972 310.827 476.426 309.002 484.125 308.468C486.313 309.046 485.681 311.201 486.425 312.567C488.388 315.43 488.855 312.437 489.88 311.674C492.117 311.222 492.756 309.065 494.101 307.68C496.531 305.17 498.963 304.136 501.639 307.302C502.812 309.156 504.27 309.149 505.908 307.932C508.06 306.299 507.121 304.914 505.53 303.661C504.31 302.7 502.686 302.19 502.124 300.521C508.435 293.473 514.656 286.345 523.415 282.164Z" fill="#4A326A"/>
<path d="M485.258 309.263L460.774 314.201C458.586 312.786 456.398 312.343 454.218 314.218C446.565 311.922 438.603 310.613 431.748 305.968C427.378 303.008 422.975 300.223 419.977 295.744C417.816 293.011 419.374 290.222 420.093 287.584C421.434 282.663 422.998 277.807 423.111 272.645C423.723 271.003 425.072 270.181 426.567 269.519C446.016 261.742 465.073 253.233 481.601 239.974C501.66 223.883 514.812 203.467 520.729 178.386C521.414 175.487 521.149 172.16 523.716 169.888C526.869 169.827 527.092 172.62 528.22 174.531C528.902 175.687 528.281 177.924 530.758 177.591C542.659 183.17 554.815 188.049 567.683 190.958C565.917 197.403 564.593 204.009 562.313 210.267C552.894 236.121 541.923 261.189 523.413 282.154L502.488 300.61C497.681 305.366 492.51 309.385 485.258 309.263Z" fill="#5F3470"/>
<path d="M509.906 391.769C512.008 389.496 511.144 386.68 511.008 384.166C510.587 376.319 511.605 368.941 515.001 361.675C519.905 351.186 524.25 340.422 528.519 329.653C531.672 321.685 537.093 316.804 545.579 315.402C551.38 315.822 556.978 313.329 562.815 314.193C563.866 316.625 562.323 318.521 561.44 320.499C556.641 331.305 552.007 342.166 548.778 354.091C558.447 350.446 568.116 348.23 577.867 346.351C583.543 345.26 588.713 345.256 592.339 351.125C594.34 354.362 598.393 355.068 601.739 356.55C604.136 357.601 606.853 358.133 608.613 360.355C609.992 362.724 608.691 364.68 607.604 366.64C593.149 392.704 575.738 416.593 555.054 438.079C552.295 440.528 550.094 443.477 547.662 446.218C546.142 447.929 544.231 449.106 541.776 449.068C531.033 445.579 520.986 440.553 511.123 435.137C508.658 433.783 507.169 431.563 507.056 428.656C506.608 416.992 506.81 405.354 508.611 393.791C508.746 392.969 509.269 392.313 509.906 391.769Z" fill="#714089"/>
<path d="M608.461 360.953C605.039 359.637 601.556 358.46 598.216 356.959C595.82 355.883 592.507 354.935 591.522 352.965C587.948 345.818 582.542 347.019 576.534 348.328C566.43 350.531 556.202 352.213 546.037 357.558C550.319 341.883 556.015 327.825 562.811 314.184C579.05 313.189 594.355 316.519 608.827 323.935C613.325 326.247 616.922 330.1 621.973 331.411C619.202 341.415 613.969 350.348 609.701 359.702C609.977 360.807 609.556 361.207 608.461 360.953Z" fill="#53276E"/>
<path d="M600.713 183.281C603.963 183.664 604.903 185.72 604.888 188.475C604.873 191.462 603.112 193.299 600.364 193.1C597.714 192.904 595.95 190.901 596.148 187.992C596.331 185.15 598.094 183.658 600.713 183.281Z" fill="#EDE2F0"/>
<path d="M613.55 248.099C613.67 250.47 612.485 252.202 610.263 252.397C607.793 252.608 606.124 251.136 605.954 248.465C605.788 245.879 607.652 244.706 609.641 244.515C611.801 244.307 613.384 245.661 613.55 248.099Z" fill="#EAE0EF"/>
<path d="M373.191 19.9662C372.586 20.044 371.817 19.9116 371.407 20.2353C369.713 21.57 371.884 21.631 372.178 21.7823C376.498 24.0209 381.278 25.3347 385.227 28.3258C386.358 29.1834 387.607 29.9128 388.609 30.8965C389.433 31.7058 390.625 32.6517 390.062 34.0053C389.221 36.0001 387.71 34.9954 386.453 34.4825C385.196 33.9696 384.073 34.1441 382.907 34.6149C378.957 37.2361 374.305 36.8388 369.933 37.5366C354.389 40.0233 339.781 44.7023 326.713 53.9068C320.011 58.6258 316.867 65.7599 312.434 72.0532C310.408 73.4846 308.957 75.4647 307.389 77.3502C303.637 81.8463 301.899 82.0103 297.19 78.2961C293.794 75.616 290.218 72.8856 290.508 67.9291C290.771 63.4078 285.297 67.9564 285.163 64.3558C286.018 58.1802 291.79 55.2752 294.544 50.0938C262.045 62.6384 230.289 76.4652 200.02 93.5291C192.651 97.6826 192.8 97.8297 195.215 106.042C197.985 115.463 200.916 124.838 203.465 134.324C204.048 136.493 204.897 138.619 204.239 140.937C202.788 144.021 200.331 145.126 197.046 144.609C192.449 139.203 190.841 132.264 187.736 126.091C185.634 121.908 183.532 117.647 182.008 113.195C180.56 108.974 178.179 108.361 174.553 110.595C164.917 116.546 156.091 123.52 148.478 131.89C132.622 149.32 119.987 168.774 111.903 191.038C106.516 205.869 104.408 221.136 105.072 236.875C105.221 240.421 106.123 244.316 103.199 247.419C99.4154 249.311 97.7044 248.411 98.6502 244.028C99.346 240.806 99.4091 237.533 99.2241 234.286C98.4043 219.881 100.662 205.848 104.086 191.948C112.349 163.023 127.628 138.055 147.584 115.839C193.828 64.3747 253.566 39.1299 320.205 27.4135C320.606 27.3421 321.023 27.3925 321.935 27.4808C319.953 25.9611 317.598 25.1455 317.718 22.4781C326.593 21.6709 335.474 20.9226 344.342 20.0356C351.879 19.281 359.302 20.8953 367.733 21.3956C364.916 17.6772 360.699 19.1486 357.786 16.1406C363.602 16.5043 368.397 18.2405 373.191 19.9662Z" fill="#E9BAD3"/>
<path d="M105.843 190.926C101.877 207.805 100.122 224.886 100.958 242.233C101.036 243.843 100.117 245.504 99.6361 247.278L103.344 246.544C107.323 255.909 109.719 265.809 113.12 275.36C118.541 279.478 115.012 283.283 112.719 287.131C110.951 288.859 111.277 291.125 111.128 293.28C110.943 295.966 110.228 298.366 107.575 299.691C105.263 299.245 103.397 299.182 102.686 302.257C101.824 305.992 99.9409 309.429 98.9655 313.164C94.6754 326.512 91.2723 340.105 87.4762 353.59C87.1891 354.181 86.7484 354.684 86.2002 355.046C83.8607 354.811 83.6485 352.686 82.8014 351.16C73.7061 334.796 66.9756 317.635 65.273 298.795C65.4832 293.961 67.6419 289.837 70.0823 285.822C76.094 275.93 82.5197 266.328 89.8409 257.351C93.1872 257.685 92.5167 260.504 92.8194 262.494C94.3475 272.584 98.3539 281.677 103.691 290.743C106.726 286.749 106.541 283.253 104.302 279.239C99.5079 270.646 95.8105 261.689 93.4374 251.965C92.3612 247.551 90.9444 243.173 90.0742 238.532C88.4305 241.943 91.142 245.744 89.3427 249.109C81.206 254.427 72.6278 258.69 62.8578 260.079C60.6613 259.61 58.8977 261.13 56.8567 261.38C67.0513 255.543 64.2136 244.678 66.4333 235.877C68.8085 226.445 72.0834 217.369 75.3688 208.267C77.847 207.834 78.2968 210.836 80.3231 211.235C82.2359 208.358 78.6037 204.784 81.5318 202.09C83.2407 197.066 84.6847 192.088 91.6843 192.019C95.0307 191.988 92.5251 187.538 94.7553 186.15C96.0586 187.769 92.0563 193.718 98.6986 190.985C101.061 187.761 103.441 187.628 105.843 190.926Z" fill="#D198C0"/>
<path d="M105.843 190.926C103.453 189.536 101.074 189.524 98.6965 190.976C106.089 158.791 122.609 131.49 144.665 107.528C185.954 62.6527 238.299 37.7422 297.106 25.1724C303.82 23.7367 310.668 22.0467 317.706 22.4734L324.796 28.2202C285.474 34.5619 248.582 45.7759 214.314 64.8388C172.362 88.1707 138.981 120.007 117.007 163.079C112.46 171.993 108.523 181.225 105.843 190.926Z" fill="#C283B3"/>
<path d="M381.913 40.7305C427.149 42.412 466.446 57.5463 497.372 91.6592C507.796 103.157 515.535 116.273 520.971 130.779C513.728 133.356 505.961 128.026 503.445 118.75C506.112 137.695 501.732 146.147 487.661 149.228C479.779 147.355 474.757 140.833 467.144 136.566C466.645 174.319 454.631 208.285 436.528 240.393C436.286 240.94 436.008 241.472 435.698 241.984C432.911 246.415 430.037 250.796 426.895 254.995C426.559 255.504 426.208 256 425.865 256.5C418.928 266.621 416.196 267.063 405.829 259.752C384.494 236.887 367.443 211.007 352.489 183.661C349.757 178.647 347.383 173.43 344.081 168.737C343.808 162.401 346.536 156.871 348.802 151.215C353.198 150.243 357.65 151.868 362.127 150.584C376.42 146.479 388.872 130.149 388.786 115.199C388.723 103.895 381.234 98.5474 370.482 101.869C367.329 102.842 364.386 105.593 360.666 103.68C362.24 95.0876 365.368 86.9277 367.8 78.5808C370.873 68.0267 374.863 57.7502 377.82 47.1436C378.497 44.6717 378.953 41.8445 381.913 40.7305Z" fill="#D48BB9"/>
<path d="M348.569 151.564C349.83 157.834 344.93 162.757 344.813 168.726C344.454 169.214 343.945 169.572 343.364 169.744C338.936 169.67 335.167 167.394 331.148 165.979C325.01 163.814 324.922 163.6 322.496 169.962C315.29 188.865 304.337 205.198 289.186 218.613C285.947 221.48 283.124 225.494 277.867 224.918C275.277 223.096 276.562 220.83 277.388 218.854C285.375 199.77 292.919 180.476 303.32 162.494C307.091 155.978 312.335 150.811 318.111 146.204C321.359 143.614 322.002 141.108 320.575 137.197C317.067 127.576 312.816 118.241 309.964 108.362C307.295 99.1131 307.185 89.7446 307.789 80.3214C307.999 77.1285 308.573 73.7549 311.599 71.6361C320.848 48.8423 341.34 42.4775 362.406 37.2351C369.067 35.5767 375.949 34.5026 382.907 34.6224L381.913 40.7307C376.576 57.3679 371.071 73.9546 366.013 90.6779C364.661 95.1456 362.949 99.4962 360.893 103.687C361.036 106.697 358.255 106.92 356.577 108.154C349.572 113.306 343.226 119.055 340.909 127.826C339.068 134.796 340.836 141.121 345.397 146.708C346.599 148.203 348.912 149.039 348.569 151.564Z" fill="#DEA8C7"/>
<path d="M488.075 148.021C500.779 142.879 507.392 136.25 501.528 117.277C507.705 123.079 511.125 131.798 520.965 130.778C529.206 131.295 535.802 125.523 544.109 125.416C539 128.493 534.02 131.834 528.746 134.579C522.346 137.906 520.99 143.066 522.282 149.517C524.21 159.147 527.626 168.332 530.762 177.6C528.954 179.952 528.509 177.72 527.914 176.664C526.711 174.537 525.656 172.328 524.551 170.148C520.347 167.349 520.002 162.06 516.983 158.493C511.922 151.022 505.423 147.325 496.256 150.535C492.859 151.92 489.78 154.043 486.223 154.989C484.109 155.55 481.304 156.25 480.466 153.518C479.776 151.281 482.269 150.198 484.001 149.154C485.25 148.403 486.831 148.813 488.075 148.021Z" fill="#FCFBFC"/>
<path d="M566.563 172.384C568.982 172.51 569.505 174.066 569.35 176.107C569.23 177.685 568.646 178.871 566.762 178.537C564.824 178.194 563.254 177.143 563.279 175.075C563.3 173.238 564.692 172.342 566.563 172.384Z" fill="#F5F1F7"/>
<path d="M527.487 144.095C525.925 143.712 525.766 142.714 525.791 141.73C525.835 140.03 526.787 139.128 528.479 139.464C529.709 139.71 529.724 140.824 529.572 141.833C529.366 143.187 528.355 143.702 527.487 144.095Z" fill="#F0E3F0"/>
<path d="M599.749 525.956C587.791 545.194 573.684 562.827 559.141 580.124C558.613 581.31 557.726 581.955 556.408 581.959C550.613 581.915 546.871 579.338 545.873 573.392C545.6 571.769 544.612 570.449 543.981 568.978C543.824 567.153 544.994 565.972 546.014 564.692C565.476 540.24 583.539 514.707 600.117 488.215C603.436 482.912 605.348 476.682 610.383 472.495C614.408 472.562 616.981 470.006 619.806 467.618C622.553 465.306 624.84 461.489 629.502 463.168C624.993 478.933 617.443 493.382 609.834 507.785C606.593 513.91 603.116 519.905 599.749 525.956Z" fill="#8D5094"/>
<path d="M663.842 277.238C665.91 282.338 666.84 287.71 667.668 293.108C667.63 295.53 666.377 294.514 665.543 293.739C663.773 292.097 662.886 289.638 659.602 287.403C662.047 300.049 667.17 311.116 666.201 323.152C666.482 321.47 666.806 319.702 669.032 319.999C670.821 320.232 670.924 321.926 671.102 323.347C671.573 327.265 670.375 331.097 670.459 335.011C669.082 346.196 669.293 357.637 664.862 368.296C659.762 367.22 658.135 368.771 657.189 374.442C655.371 385.398 651.762 396.071 647.743 406.493C646.36 410.081 646.795 414.958 641.717 416.347C639.493 414.035 640.411 411.34 640.907 408.78C645.446 385.438 648.475 361.94 648.59 338.114C648.616 333.069 651.338 328.293 650.408 323.097C653.351 313.552 654.381 303.986 652.969 293.911C651.485 283.349 655.281 272.954 654.575 260.91C659.808 266.543 657.902 274.058 663.842 277.238Z" fill="#3E2151"/>
<path d="M650.409 323.105C652.958 327.099 650.263 331.03 650.301 334.992C650.56 361.628 647.302 387.882 641.753 413.892C641.584 414.678 641.721 415.527 641.715 416.347C638.829 428.538 635.941 440.734 633.048 452.934C632.207 456.461 631.484 460.041 629.492 463.173C624.911 464.15 622.101 467.639 618.793 470.509C616.613 472.4 614.589 475.993 610.805 472.836C609.227 470.479 610.862 468.526 611.682 466.53C614.803 458.962 618.213 451.524 620.911 443.786C632.109 412.875 639.941 381.114 645.24 348.693C646.127 343.276 646.648 337.714 649.048 332.632C649.118 329.407 649.074 326.16 650.409 323.105Z" fill="#854686"/>
<path d="M664.862 368.295C666.166 356.848 667.471 345.401 668.775 333.953C674.333 333.444 673.848 338.01 674.92 341.268C676.41 342.292 676.08 343.79 675.928 345.224C671.233 351.826 672.673 360.961 666.879 367.11C666.32 367.702 666.396 369.365 664.862 368.295Z" fill="#79498A"/>
<path d="M649.051 332.643C648.101 347.483 644.727 361.913 641.734 376.414C637.128 398.735 631.102 420.65 623.316 442.074C622.982 442.99 622.4 443.818 621.933 444.686C619.635 445.451 618.292 444.352 617.399 442.374C617.489 441.567 617.17 442.584 617.3 441.775C618.709 432.934 618.698 432.98 609.687 430.914C602.088 429.174 594.521 427.259 587.246 424.436C581.865 422.347 577.352 423.065 573.276 427.28C569.688 430.99 565.207 433.586 560.885 436.335C558.88 437.611 556.786 439.394 554.22 437.31C567.221 422.721 579.849 407.818 590.681 391.523C597.207 381.705 603.818 371.893 608.461 360.958L609.7 359.712C615.131 361.463 620.609 363.313 625.288 366.547C629.967 369.782 632.266 368.109 634.135 363.712C637.795 355.109 641.45 346.503 645.208 337.944C646.087 335.941 646.703 333.628 649.051 332.643Z" fill="#352251"/>
<path d="M544.471 569.088C545.354 569.481 547.023 569.914 547.006 570.258C546.634 577.18 550.682 580.138 556.704 581.416C557.36 583.307 556.103 584.516 555 585.62C550.586 590.057 545.949 594.221 540.462 597.328C533.064 601.206 527.149 607.161 520.132 611.653C498.795 625.316 476.121 635.327 450.99 639.399C450.462 639.483 450.021 640.088 449.539 640.45L426.331 645.442C426.191 645.128 426.043 644.813 425.888 644.498L504.922 597.353C507.577 597.908 509.534 597.252 510.177 594.309C510.871 592.754 512.096 591.684 513.46 590.767C522.919 584.403 532.553 578.259 540.715 570.168C541.663 569.218 542.852 568.163 544.471 569.088Z" fill="#9B5A9D"/>
<path d="M540.462 597.332C545.011 591.144 552.33 587.781 556.704 581.414L559.141 580.124C564.082 582.984 568.787 579.184 573.659 579.573C575.011 579.68 576.484 578.764 577.783 578.993C580.459 579.464 583.753 575.678 585.392 578.923C586.538 581.196 582.142 582.545 581.302 585.055C569.419 594.903 555.159 596.843 540.462 597.332Z" fill="#4C2E63"/>
<path d="M674.928 341.26C673.698 338.133 671.565 335.774 668.784 333.946C668.494 329.62 670.764 325.361 669.143 320.863C666.363 321.754 667.634 325.277 665.15 326.656C665.047 314.637 662.386 303.307 658.783 292.146C658.028 289.806 655.947 286.605 659.125 285.136C662.129 283.746 662.556 287.824 664.17 289.38C665.265 290.43 665.808 292.055 666.627 293.405C666.69 293.508 667.02 293.518 667.195 293.466C667.369 293.413 667.516 293.226 667.678 293.1C672.57 308.787 674.266 324.949 674.928 341.26Z" fill="#512E66"/>
<path d="M81.54 202.088C81.8847 204.461 82.3493 206.823 82.5321 209.209C82.652 210.752 83.1018 212.829 81.271 213.531C79.4149 214.245 78.6225 212.152 77.54 211.101C76.6992 210.279 76.0812 209.209 75.3665 208.265C74.511 205.112 73.4621 202.012 72.861 198.819C72.4406 196.559 72.6024 194.134 75.7007 193.642C78.5363 193.194 79.8143 194.777 80.3251 197.343C80.6614 198.941 81.1322 200.507 81.54 202.088Z" fill="#FAF4F7"/>
<path d="M57.8803 209.639C57.8257 206.065 59.3517 203.617 63.0806 203.493C66.8095 203.369 68.7686 205.899 68.8085 209.258C68.8484 212.68 67.5684 215.833 63.2194 215.674C59.4694 215.535 57.9518 213.162 57.8803 209.639Z" fill="#FCFAFB"/>
<path d="M89.9794 257.528C90.1434 259.983 88.6216 261.534 87.2616 263.376C79.2152 274.274 70.553 284.837 66.5655 298.159C64.4488 306.632 63.1498 315.395 57.9768 322.796C55.0887 325.666 54.3699 329.63 53.1591 333.212C48.5348 346.893 43.4207 360.434 39.9419 376.018C36.2635 366.349 35.8515 357.191 33.2513 348.613C30.1131 335.196 30.1971 321.512 31.1493 307.973C31.7232 299.776 30.9622 291.397 33.2744 283.336C33.1105 286.811 33.472 289.11 37.924 286.718C45.6593 282.56 54.2332 280.055 61.4661 274.882C63.3117 273.562 66.0106 273.215 62.4099 269.949C60.2197 267.962 61.1971 263.359 62.8618 260.069L88.7161 248.914C91.2091 251.485 92.2454 254.264 89.9794 257.528Z" fill="#AA66A8"/>
<path d="M101.967 529.717C90.7509 507.239 85.2648 483.192 82.4565 458.412C81.8995 456.243 80.9851 453.51 82.921 452.173C84.857 450.836 87.1628 452.776 89.0588 453.905C112.017 467.595 135.227 467.148 158.676 455.255C163.786 452.663 168.947 450.168 174.031 447.53C174.946 447.128 176.203 446.479 176.854 447.042C180.251 450.027 184.211 450.685 188.507 450.46C189.607 450.403 190.248 451.267 190.576 452.295C189.092 461.418 184.901 469.775 183.12 478.839C182.279 483.089 181.378 487.257 181.811 491.602C180.829 494.457 179.16 497.265 181.18 500.355C181.947 506.513 181.451 512.725 182.092 518.882C181.441 521.875 180.411 524.767 179.7 527.758C178.296 533.732 175.122 535.819 168.999 535.386C160.265 534.77 157.421 538.06 159.212 546.707C159.338 547.311 159.584 547.889 159.683 548.492C160.225 551.834 162.205 555.429 159.109 558.371C155.717 561.583 151.687 559.881 148.021 558.84C144.198 557.753 141.425 554.773 138.323 552.435C136.521 551.08 134.836 549.192 132.362 549.793C126.859 551.126 122.972 548.179 118.886 545.318C112.536 540.864 105.908 536.763 101.967 529.717Z" fill="#3B275C"/>
<path d="M101.967 529.716C107.731 534.094 112.387 539.805 118.917 543.305C123.313 545.666 126.472 550.904 132.849 547.436C134.647 546.458 136.734 549.058 138.525 550.425C142.834 553.7 146.443 557.92 152.665 558.263C158.744 558.595 159.752 557.943 158.928 551.806C158.43 548.085 155.967 544.909 157.346 540.573C159.225 534.672 161.318 532.648 167.658 533.382C175.57 534.298 177.338 533.079 178.572 525.38C178.906 523.278 179.412 521.401 180.839 519.826C184.644 525.127 183.955 531.942 186.828 537.554C189.073 545.699 193.008 553.023 197.758 559.955C198.462 561.637 199.194 563.335 198.402 565.21C205.843 578.763 219.028 584.42 232.615 588.529C239.104 590.49 241 594.121 241.282 599.512C241.982 612.883 245.486 625.551 250.058 638.003C231.55 635.157 213.347 631.029 195.812 624.381C185.172 620.347 174.685 615.907 164.139 611.624C163.088 611.203 162.201 611.092 161.434 612.065C150.403 602.964 141.045 592.254 131.859 581.376C121.097 565.553 110.274 549.765 102.696 532.06C102.379 531.307 102.207 530.498 101.967 529.716Z" fill="#352251"/>
<path d="M175.028 448.574C164.276 454.853 153.255 460.829 141.167 463.818C122.18 468.513 104.099 465.453 87.4468 454.941C86.0847 454.079 84.9538 452.795 82.8539 453.07C82.7236 454.823 82.5912 456.616 82.4588 458.409C80.7288 451.506 80.3673 444.397 80.2391 437.389C79.9679 422.577 79.3646 407.728 81.1114 392.945C80.7814 392.432 80.237 391.93 80.2391 391.36C80.2622 378.837 80.6805 366.37 86.0531 354.691C86.1751 354.347 86.2762 353.996 86.3558 353.64C88.7541 353.01 89.5676 354.902 90.5072 356.373C97.8137 367.835 105.33 379.15 113.839 389.778C111.527 397.446 105.108 401.66 95.9723 401.759C101.074 401.616 106.272 400.241 111.191 402.518C116.2 404.83 119.542 408.302 119.012 414.308C117.19 416.599 116.351 414.383 115.254 413.454C114.497 412.813 113.883 411.8 112.679 412.42C112.111 412.712 111.897 413.341 111.952 413.973C112.069 415.375 113.003 416.09 114.226 416.529C116.282 417.267 117.532 415.258 119.311 415.043C122.548 419.468 123.548 423.148 124.433 432.37C123.657 427.647 124.013 420.502 124.038 413.368C124.038 410.698 124.151 408.012 125.93 405.757C128.221 403.827 129.905 405.589 131.153 407.007C144.524 422.186 158.708 436.5 175.028 448.574Z" fill="#5A2E71"/>
<path d="M86.0532 354.684C84.2854 367.42 81.7273 380.053 81.1114 392.94C73.9479 389.079 72.5333 381.331 69.5001 374.92C62.6876 360.528 59.4106 345.238 60.3922 329.189C60.5394 326.772 60.8526 324.145 57.9771 322.799C60.4994 314.471 62.2504 305.868 66.5657 298.162C68.7182 318.499 76.8591 336.773 86.0532 354.684Z" fill="#BF81B5"/>
<path d="M41.6803 422.261C40.8521 425.994 39.8894 430.06 34.4558 429.971C29.8167 429.896 27.4016 427.321 27.2523 422.755C27.1052 418.143 28.9948 414.791 33.8714 414.127C37.6235 413.618 41.5731 417.748 41.6803 422.261Z" fill="#FBF6FA"/>
<path d="M80.0687 536.954C79.9278 534.621 81.9478 532.502 85.4897 532.388C88.897 532.277 90.8792 534.776 90.8056 537.874C90.7236 541.299 89.0924 544.41 84.9431 544.281C81.4244 544.176 80.2263 541.624 80.0687 536.954Z" fill="#F9F1F8"/>
<path d="M252.187 659.117L321.741 659.068C319.457 660.365 316.945 659.838 314.536 659.846C295.949 659.923 277.361 659.95 258.772 659.926C256.565 659.92 254.257 660.374 252.187 659.117Z" fill="#42285F"/>
<path d="M365.765 378.012C371.634 375.07 378.085 374.399 384.42 373.317C385.826 373.075 387.289 373.216 388.155 371.77C393.37 373.451 395.933 378.26 399.14 381.962C406.382 390.324 414.485 397.866 421.482 406.454C430.678 417.742 431.34 430.755 422.518 442.568C415.252 452.298 405.747 459.933 397.505 468.763C395.96 470.422 393.534 471.645 393.681 474.638C396.673 474.909 397.791 472.627 399.285 471.159C406.741 463.842 414.09 456.416 421.48 449.034C426.706 443.75 433.436 440.21 440.751 438.898C443.349 438.413 446.113 437.667 447.776 440.809C450.821 455.893 449.403 470.907 446.981 485.888C446.323 489.947 443.95 492.946 440.595 495.273C429.304 503.101 417.366 509.863 405.408 516.589C400.887 519.133 396.065 519.322 391.088 518.532C385.225 517.615 379.287 517.296 373.418 516.413C370.61 515.992 368.142 516.554 366.244 518.874C354.034 533.821 338.511 544.834 322.666 555.449C321.302 556.363 320.129 557.525 318.704 558.366C308.129 562.648 296.843 563.215 285.726 564.533C278.659 565.374 271.554 566.438 264.374 565.937C261.961 565.771 259.422 566.185 257.438 564.256C253.984 563.625 249.437 565.774 247.804 560.485C247.123 559.97 246.543 559.264 246.665 558.446C248.645 545.864 250.842 533.372 261.9 524.903C266.709 521.22 272.24 520.316 278.085 520.577C281.736 520.831 285.421 520.224 289.058 521.243C293.03 522.353 287.53 520.177 289.394 520.095C289.825 520.077 290.542 518.559 291.37 517.954C296.482 514.214 300.276 508.936 305.909 505.762C309.926 503.503 310.563 499.286 311.099 495.17C312.713 482.769 314.99 470.504 319.461 458.785C320.837 455.174 321.846 450.947 326.46 449.677C327.963 450.535 328.388 452.967 330.677 452.662C331.307 452.578 331.673 451.945 331.593 451.313C331.255 448.611 328.062 449.765 327.015 447.983C325.809 443.779 328.037 440.458 329.975 437.147C335.944 426.942 342.099 416.855 348.995 407.23C352.304 402.606 354.99 397.861 356.285 391.999C357.506 386.553 362.694 382.782 365.765 378.012Z" fill="#7E4A91"/>
<path d="M554.22 437.306C561.184 435.685 566.552 431.229 571.492 426.586C576.373 421.987 581.068 419.923 587.599 422.697C596.398 426.435 605.716 428.465 615.078 430.334C622.553 431.828 622.501 431.999 619.392 438.788C618.891 439.881 618.616 441.077 618.236 442.225C617.634 443.496 617.843 445.01 616.951 446.208C611.152 454.004 606.271 462.393 601.142 470.618C600.123 472.256 599.087 476.34 595.395 473.29C594.677 468.8 597.815 465.632 599.389 461.95C600.6 459.127 601.912 456.344 603.267 452.491C595.412 461.479 587.923 469.557 580.612 477.784C567.256 492.809 552.812 506.701 538.138 520.427C525.831 531.941 512.868 542.573 499.388 552.597C477.948 568.541 455.372 582.609 430.653 593.025C429.142 593.655 427.696 594.446 426.205 595.116C422.689 596.697 424.314 598.301 426.062 599.965C420.789 603.749 414.436 604.966 408.406 606.524C404.219 607.606 400.91 602.788 396.574 602.303C395.55 602.282 394.512 602.351 393.513 602.103C383.386 599.581 381.742 595.503 387.418 586.9C389.566 583.648 392.042 580.648 394.657 577.748C396.893 575.259 398.92 572.398 398.693 569.024C398.409 564.787 400.374 563.231 403.912 561.398C414.378 555.975 424.524 549.915 433.018 540.255C429.581 539.733 427.431 540.999 425.241 541.737C400.965 549.905 376.706 558.132 351.291 562.182C350.076 562.376 348.884 562.706 347.665 562.859C339.888 563.849 337.222 560.503 339.64 552.755C350.339 548.667 361.643 546.687 372.561 543.311C394.27 536.597 415.494 528.734 435.862 518.634C442.443 515.371 449.411 512.891 455.597 508.847C479.86 496.359 502.173 480.922 523.518 464.005C530.062 458.82 535.71 452.514 543.067 448.352C547.504 445.365 549.638 440.102 554.22 437.306Z" fill="#2C1C3F"/>
<path d="M426.075 599.952C424.202 599.878 422.403 599.58 419.708 597.148C437.489 587.346 456.072 580.122 472.693 569.259C489.313 558.396 505.41 546.799 520.635 534.089C536.053 521.214 550.386 507.127 564.53 492.854C578.502 478.756 590.994 463.307 605.475 448.082C604.424 458.031 598.456 464.849 596.051 472.988C594.908 480.089 590.626 485.766 586.986 491.566C562.463 530.625 530.042 561.424 489.723 583.964C488.01 584.916 486.381 586.567 484.111 585.272C466.135 595.563 446.874 600.797 426.075 599.952Z" fill="#634286"/>
<path d="M339.984 553.116C339.959 562.133 340.499 562.173 349.498 560.792C377.103 556.559 403.283 547.363 429.602 538.574C431.362 537.988 433.867 535.827 435.164 537.906C436.461 539.985 434.113 542.005 432.528 543.545C423.788 551.995 413.724 558.591 402.794 563.764C400.742 564.737 400.881 564.815 400.957 566.989C401.211 574.104 396.084 578.713 391.798 583.594C391.399 584.048 391.191 584.662 390.825 585.152C382.709 595.971 382.709 595.964 395.174 601.179C395.708 601.404 396.124 601.909 396.595 602.283C392.668 604.833 389.291 604.063 384.872 602.314C375.872 598.741 366.871 593.678 356.441 596.408C355.892 596.551 354.816 596.568 354.747 596.372C352.758 590.781 346.627 590.659 342.965 587.334C342.246 586.68 341.393 585.652 341.405 584.811C341.494 579.336 340.216 575.424 333.466 576.271C332.035 576.452 331.427 575.125 331.503 573.726C331.564 572.557 332.243 571.846 333.378 571.663C334.19 571.555 335.008 571.5 335.827 571.497C338.412 571.411 339.854 569.7 339.4 567.535C338.856 564.975 336.472 565.261 334.339 565.757C330.706 566.598 328.047 568.502 326.7 572.115C324.129 578.999 319.679 584.534 314.172 589.291C313.096 590.218 312.095 591.494 310.464 590.804C308.749 590.081 309.3 588.397 309.178 587.035C308.758 582.251 310.118 577.761 311.236 573.183C312.167 569.372 312.146 567.113 306.22 567.445C290.998 568.286 275.702 567.811 260.435 567.794C258.264 567.794 256 567.508 257.455 564.271C276.986 564.273 296.46 562.144 315.53 557.921C316.711 557.66 317.825 557.101 318.973 556.681C325.725 554.032 332.64 552.311 339.984 553.116Z" fill="#34224F"/>
<path d="M484.111 585.261C504.5 574.675 522.997 561.449 539.926 545.899C562.882 524.818 581.394 500.402 596.049 472.977C599.075 471.388 601.453 468.795 602.776 465.643C606.559 456.897 612.926 449.919 618.233 442.215L621.931 444.683C619.57 454.6 614.061 463.272 610.805 472.834C593.63 503.605 572.827 531.931 551.861 560.144C549.549 563.245 546.939 566.11 544.467 569.086C534.926 577.927 524.515 585.616 513.517 592.542C512.542 593.156 511.876 594.259 511.064 595.136C509.425 595.686 507.802 595.817 506.23 594.926C500.63 590.463 495.377 585.187 487.102 587.388C485.54 587.798 484.279 587.146 484.111 585.261Z" fill="#3A2545"/>
<path d="M277.901 522.08C265.556 521.903 257.326 527.778 253.059 539.221C250.497 546.095 248.485 553.137 247.804 560.493C245.251 567.371 245.406 574.797 243.075 581.948C241.421 572.239 240.912 562.362 237.82 552.994C235.275 550.227 235.546 546.547 234.718 543.238C233.009 536.432 231.035 529.832 225.208 525.176C221.767 522.427 218.061 520.501 213.574 520.247C211.566 520.133 209.437 520.264 207.846 518.607C207.024 515.177 209.593 514.937 211.798 514.582C214.221 514.191 216.666 513.952 219.085 513.458C227.716 511.717 233.288 506.521 236.267 498.393C239.382 489.89 241.639 481.19 242.411 472.118C242.648 469.324 242.802 464.847 245.475 464.738C249.162 464.589 248.788 469.152 249.307 471.994C250.848 480.459 251.744 489.02 254.352 497.302C257.896 508.577 265.253 515.269 276.883 517.405C279.553 517.895 282.605 517.727 284.961 520.457C282.68 522.511 279.948 520.978 277.901 522.08Z" fill="#FDFCFD"/>
<path d="M208.476 518.444C222.629 518.381 230.698 524.043 234.873 537.458C236.437 542.482 238.198 547.562 237.828 552.994C230.07 557.198 221.549 559.352 213.317 562.314C209.323 563.752 205.26 559.254 201.697 563.121C199.478 563.403 198.433 561.688 197.119 560.429C191.223 554.146 187.568 546.738 185.998 538.284C186.275 536.063 187.509 534.461 189.493 533.605C195.743 530.917 200.31 525.618 206.381 523.245C207.083 520.249 202.177 521.143 203.623 518.601C204.716 516.693 206.801 517.332 208.476 518.444Z" fill="#7E4A90"/>
<path d="M448.589 624.578C444.579 623.703 441.409 621.063 441.554 616.849C441.682 613.065 444.417 609.601 448.741 609.977C452.867 610.335 455.257 613.879 455.257 617.721C455.272 621.296 453.235 624.351 448.589 624.578Z" fill="#933EA3"/>
<path d="M353.325 607.436C353.048 610.564 351.654 612.636 348.93 612.874C346.156 613.116 344.306 611.18 343.917 608.548C343.471 605.572 345.542 604.054 348.174 603.697C351.11 603.297 352.455 605.351 353.325 607.436Z" fill="#8D38A3"/>
<path d="M506.228 594.922C507.909 593.318 509.517 593.646 511.062 595.132C511.272 597.085 510.989 598.85 508.828 599.508C506.892 600.099 505.936 598.592 504.912 597.354L506.228 594.922Z" fill="#F3EAF7"/>
<path d="M236.201 565.055H224.239C224.239 564.845 224.239 564.647 224.239 564.443H236.206L236.201 565.055Z" fill="#352251"/>
<path d="M197.119 560.429C199.348 560.133 200.346 561.928 201.697 563.122C201.111 564.622 200.226 565.644 198.406 565.209C197.359 563.78 196.68 562.256 197.119 560.429Z" fill="#D7B4C8"/>
<path d="M208.476 518.444L204.653 518.8C205.26 520.41 206.545 519.594 207.423 519.796C208.369 520.006 209.59 519.638 210.015 520.895C210.412 522.083 209.531 522.915 208.739 523.443C203.156 527.157 197.756 531.279 191.772 534.19C189.46 535.319 188.222 537.4 185.998 538.285C182.347 532.673 181.848 526.18 180.848 519.828C179.339 512.975 179.761 506.026 179.78 499.096C181.344 497.12 181.642 494.909 181.014 492.523C179.194 489.444 179.753 486.242 180.48 483.011C182.857 472.468 185.615 462.04 189.8 452.041C190.378 450.183 189.756 448.402 189.304 446.66C188.531 443.671 189.437 441.405 191.997 439.839C195.482 437.714 197.239 434.315 199.211 430.935C208.052 415.769 219.087 402.571 234.059 393.005C248.632 383.533 263.258 374.18 279.988 368.775C283.111 367.766 286.216 367.094 289.486 367.169C301.142 364.819 312.686 363.474 324.522 366.892C332.44 369.177 339.419 372.567 344.821 378.726C347.718 382.028 350.175 383.43 354.639 381.038C357.918 379.275 361.776 377.984 365.767 378.024C365.689 378.629 365.811 379.367 365.509 379.823C357.164 392.305 352.798 406.991 343.242 418.893C337.937 425.503 334.038 433.272 329.777 440.676C328.392 443.084 327.324 445.863 327.831 448.873C328.413 450.134 328.001 450.933 326.67 451.28C324.143 453.008 322.242 455.507 321.252 458.404C316.915 470.511 314.183 482.971 312.844 495.747C312.24 501.494 310.138 505.782 304.537 508.887C299.235 511.837 294.866 516.213 291.925 521.52C291.191 522.848 290.298 522.268 289.533 522.272C285.657 522.295 281.779 522.171 277.898 522.098L283.925 520.584C280.196 519.859 277.198 519.353 274.232 518.693C264.086 516.403 257.192 510.421 253.663 500.569C250.337 491.287 249.013 481.588 247.55 471.919C247.188 469.527 247.056 467.102 245.368 464.455C243.562 475.175 242.404 485.46 239.285 495.451C235.081 508.904 226.412 515.712 212.502 516.37C211.058 516.414 208.445 515.17 208.476 518.444Z" fill="#89549C"/>
<path d="M289.486 367.168C269.307 372.711 251.75 383.631 234.036 394.227C233.456 393.027 233.626 391.795 234.137 390.674C242.06 373.283 245.439 355.012 244.794 335.954C244.775 335.344 245.004 334.751 245.145 334.156C245.902 331.985 247.632 330.911 249.643 330.163C287.599 319.443 325.031 307.079 362.261 294.078C364.363 293.347 366.364 292.153 368.729 292.558C371.52 294.139 370.152 296.537 369.673 298.536C367.262 308.563 362.784 317.603 357.45 324.319C376.378 311.237 394.182 294.301 410.962 276.226C414.895 273.914 418.739 271.246 423.704 272.543C426.436 276.384 423.611 279.9 422.96 283.501C422.214 287.629 420.994 291.671 419.979 295.751C415.939 298.637 415.891 303.615 414.237 307.596C407.205 324.532 397.04 339.611 387.359 354.995C386.272 356.725 384.91 358.34 384.143 360.202C381.994 365.417 378.989 366.233 373.521 364.351C348.146 355.622 322.563 357.165 297.032 363.984C294.485 364.662 291.952 365.394 289.421 366.128C289.301 366.163 289.186 366.472 289.198 366.645C289.211 366.817 289.383 366.991 289.486 367.168Z" fill="#5C3D7E"/>
<path d="M543.098 448.339C535.815 456.656 527.001 463.263 518.345 469.979C498.993 484.989 478.715 498.633 456.903 509.883C454.155 506.446 453.714 502.566 454.681 498.414C457.018 495.745 457.741 492.571 457.514 489.103C460.27 477.041 458.555 465.102 456.568 453.176C456.106 450.395 454.82 447.631 456.592 444.871C459.831 442.769 462.017 445.104 464.159 446.867C473.035 454.168 481.237 462.189 489.157 470.511C483.406 463.244 475.902 457.56 470.477 449.985C468.928 447.82 467.236 445.756 465.853 443.469C456.127 427.38 457.72 416.704 470.841 401.091C472.398 399.237 474.086 396.555 477.42 398.173C480.993 403.333 481.456 409.734 484.203 415.199C485.948 418.676 486.803 423.397 492.659 422.077C502.427 419.872 505.629 417.108 505.721 410.35C505.788 405.442 505.687 400.529 505.761 395.619C505.795 393.393 505.595 391.066 507.403 389.28C510.726 387.609 509.482 390.522 509.9 391.766C509.479 403.193 508.363 414.577 508.481 426.045C508.529 430.708 510.224 433.301 514.1 435.084C523.769 439.495 533.435 443.914 543.098 448.339Z" fill="#4B1B62"/>
<path d="M476.539 397.383C476.361 397.483 476.192 397.6 476.035 397.73C457.01 416.438 456.209 430.479 473.302 450.91C478.28 456.859 483.844 462.313 489.027 468.094C490.574 469.819 492.775 471.31 492.634 475.304C480.432 465.031 470.961 452.959 458.242 444.655C454.473 443.761 450.332 443.9 447.389 440.726C437.544 438.79 429.884 443.278 423.216 449.59C414.598 457.76 406.441 466.437 397.951 474.759C396.479 476.201 395.147 479.579 392.09 476.687C388.807 473.578 392.151 471.989 393.795 470.32C401.28 462.729 409.007 455.377 416.442 447.738C430.973 432.814 431.093 418.941 417.072 403.597C407.412 393.014 397.773 382.409 388.156 371.783C388.589 370.257 388.977 368.859 390.825 370.768C392.208 372.195 393.797 373.423 395.294 374.741C399.582 375.689 401.81 379.46 404.784 382.047C414.262 390.279 423.996 398.192 433.661 406.195C448.259 410.935 460.207 405.547 470.576 395.838C480.43 386.613 489.704 376.761 500.023 368.031C504.054 369.387 504.525 370.993 501.32 374.566C496.308 380.153 490.879 385.354 485.46 390.541C482.763 393.11 480.848 396.847 476.539 397.383Z" fill="#FDFCFD"/>
<path d="M476.539 397.383C484.386 389.395 492.27 381.456 500.052 373.42C501.618 371.802 505.025 369.786 500.023 368.033C504.279 361.771 501.574 354.032 504.905 347.434C501.872 361.67 505.887 375.39 507.409 389.307C507.419 397.473 507.302 405.644 507.506 413.804C507.581 416.896 506.812 418.827 503.642 419.647C501.687 420.151 499.829 421.051 497.954 421.835C488.016 425.997 487.938 427.838 482.435 415.342C479.911 409.574 478.471 403.369 476.539 397.383Z" fill="#6D4382"/>
<path d="M475.32 377.349C475.457 382.36 470.565 387.823 465.968 387.796C461.371 387.768 456.043 383.016 455.759 378.698C455.433 373.734 460.047 368.554 465.008 368.323C470.66 368.058 475.177 372.01 475.32 377.349Z" fill="#A550B3"/>
<path d="M433.661 406.181C428.242 404.533 424.127 400.816 420.097 397.167C411.834 389.682 402.537 383.336 395.294 374.727C396.134 373.283 397.207 373.611 398.407 374.243C412.36 381.588 423.942 391.767 433.821 403.953C434.163 404.375 433.73 405.424 433.661 406.181Z" fill="#7E4D94"/>
<path d="M485.258 309.264L502.495 300.621C504.275 301.445 506.551 301.838 507.729 303.188C509.875 305.649 511.258 308.653 505.902 309.172C504.313 308.628 502.646 308.403 501.021 308.005C499.129 306.162 497.626 305.836 495.434 308.073C494.011 309.525 493.58 313.153 490.07 311.757C488.464 312.522 486.749 312.808 484.994 312.928C483.394 311.583 484.888 310.465 485.258 309.264Z" fill="#3D295C"/>
<path d="M420.858 321.688C420.538 323.977 419.614 325.404 417.432 325.547C415.004 325.702 413.501 324.439 413.394 322.089C413.291 319.815 414.535 318.129 416.95 318.051C419.454 317.971 420.187 320.004 420.858 321.688Z" fill="#EBE2EE"/>
<path d="M454.22 314.218C454.376 312.41 454.332 310.39 456.932 310.396C459.381 310.396 460.409 312.007 460.777 314.201C458.597 317.392 456.411 316.982 454.22 314.218Z" fill="#C266D1"/>
<path d="M484.989 312.926C486.25 310.696 487.856 309.906 490.066 311.756C490.158 313.647 491.224 316.096 488.132 316.468C485.75 316.754 485.244 314.822 484.989 312.926Z" fill="#F2F1F5"/>
<path d="M448.322 378.284C448.205 380.318 447.189 381.388 445.693 381.451C444.095 381.521 443.141 380.165 443.076 378.719C443.006 377.195 443.986 375.931 445.634 375.986C447.141 376.032 448.194 376.993 448.322 378.284Z" fill="#EBE7F1"/>
<path d="M501.017 308.005C503.274 305.755 504.901 306.144 505.898 309.171C503.724 311.071 501.658 312.513 501.017 308.005Z" fill="#EAE9EE"/>
<path d="M488.075 148.02C486.164 150.255 482.585 150.488 480.991 153.876C487.278 155.163 491.047 149.588 496.336 149.181C503.951 151.379 510.701 155.749 518.318 157.937C521.061 161.668 523.031 165.792 524.536 170.152C523.022 175.779 521.715 181.471 519.962 187.025C510.204 217.924 489.74 239.769 461.792 255.105C450.683 261.201 439.217 266.595 427.244 270.835C424.162 269.683 423.67 267.349 424.364 264.489C425.198 260.986 425.794 257.43 426.146 253.846L434.874 241.567C436.057 242.571 436.087 244.106 436.648 245.398C437.167 246.586 437.909 247.582 439.406 247.212C440.261 247.002 440.73 246.26 440.797 245.398C440.904 244.026 440.232 243.057 439 242.496C437.686 241.895 436.131 242.361 434.851 241.583C437.373 232.904 442.723 225.577 446.374 217.411C456.03 195.823 463.019 173.69 464.522 149.895C464.85 144.724 465.506 139.486 465.59 133.641C474.067 137.826 479.612 145.26 488.075 148.02Z" fill="#AB65A6"/>
<path d="M426.151 253.848C427.876 256.704 427.317 259.523 426.403 262.544C425.562 265.295 424.33 268.355 427.244 270.838L423.698 272.532C419.479 273.812 415.271 275.122 411.414 277.327C399.853 283.389 387.926 288.637 375.501 292.696C373.94 293.207 372.33 293.476 370.686 293.022C367.161 291.248 363.281 290.71 359.497 289.869C355.894 289.091 352.345 288.079 348.874 286.84C345.897 285.754 341.035 284.846 341.529 281.522C342.044 278.048 346.759 280.007 349.626 279.649C357.403 278.683 364.794 276.286 372.117 273.638C383.859 269.398 394.819 263.368 406.422 258.785C408.921 261.39 412.774 261.074 415.622 263.124C417.774 264.673 419.422 262.59 420.694 261.074C422.634 258.766 424.345 256.267 426.151 253.848Z" fill="#BD78AA"/>
<path d="M524.847 268.094C524.782 271.777 523.39 273.769 520.033 273.477C516.344 273.156 513.801 270.955 513.784 267.285C513.767 263.945 516.269 262.328 519.594 262.501C523.407 262.698 524.794 265.12 524.847 268.094Z" fill="#B657B8"/>
<path d="M488.968 268.782C488.911 270.846 488.127 272.191 486.156 272.292C483.905 272.407 482.917 271.056 482.755 268.91C482.601 266.869 483.722 265.717 485.521 265.639C487.587 265.553 488.903 266.753 488.968 268.782Z" fill="#BF6BC5"/>
<path d="M112.113 287.202C112.309 286.039 112.084 284.389 112.771 283.799C116.233 280.818 114.77 278.434 112.216 276.021C111.462 271.523 114.285 268.183 116.223 264.723C127.647 244.309 137.007 222.837 148.423 202.416C159.515 182.574 172.596 164.337 189.599 149.106C191.852 147.086 194.044 144.801 197.302 144.32C199.123 142.748 202.372 143.368 203.295 140.414C203.543 140.257 203.825 140.161 204.117 140.135C204.41 140.108 204.704 140.151 204.977 140.261C206.288 140.989 207.344 142.103 208.001 143.452C210.65 149.791 213.729 155.941 217.216 161.861C218.612 164.253 220.563 166.529 219.81 169.661C217.311 171.942 215.215 166.63 212.687 169.281C208.611 168.23 208.298 164.215 206.509 161.377C204.905 158.834 204.119 155.824 202.141 152.932C190.126 167.225 178.649 181.369 168.673 196.604C155.624 216.537 144.721 237.66 134.88 259.363C131.914 265.904 132.057 271.382 136.704 276.971C139.05 279.794 141.226 282.802 143.534 285.676C146.666 289.583 147.502 289.522 149.749 284.797C157.016 269.505 166.483 255.664 177.132 242.577C178.813 240.521 180.285 238.207 183.248 237.742C189.344 237.507 194.746 240.414 200.527 241.633C223.701 246.518 245.168 241.374 265.913 231.333C268.109 230.268 270.102 228.721 272.709 228.773C275.733 230.564 274.31 233.027 273.448 235.153C266.321 252.696 257.347 269.106 243.811 282.657C241.709 284.759 239.346 286.55 236.977 288.333C229.2 294.386 220.664 299.263 212.088 304.074C208.745 305.945 204.838 306.996 203.196 311.105C202.734 312.259 201.292 312.852 200.058 312.684C194.803 311.974 190.614 314.967 186.046 316.592C182.227 317.949 178.046 318.904 178.38 324.579C178.502 326.633 176.528 327.429 174.935 325.88C171.728 322.763 168.503 324.224 165.253 325.46C161.609 326.841 157.989 328.262 154.027 328.44C147.78 327.108 143.115 322.942 138.495 319.076C129.581 311.62 121.198 303.542 114.148 294.233C112.63 292.234 110.312 290.243 112.113 287.202Z" fill="#DAA4C5"/>
<path d="M213.078 169.182C213.618 165.776 214.528 163.99 217.105 168.131C217.609 168.942 218.576 169.465 219.325 170.123C222.549 170.123 223.026 172.963 224.113 174.977C227.123 180.553 229.906 186.252 232.681 191.948C234.553 195.799 237.206 196.772 241.177 195.311C248.662 192.564 256.042 189.525 263.615 187.034C267.929 185.615 267.054 182.752 266.167 179.647C262.207 165.797 260.071 151.691 260.744 137.263C261.12 129.313 262.88 121.477 262.955 113.492C263.586 110.787 265.816 109.578 267.948 108.409C275.826 104.083 284.225 101.229 293.009 99.4822C284.229 101.115 275.912 104.485 267.306 106.795C264.971 107.426 262.73 108.741 260.16 107.827C258.003 105.885 258.861 103.655 259.872 101.689C266.19 89.3757 273.546 77.6225 281.858 66.5568C282.779 65.3314 283.715 63.7549 285.751 64.2047C288.41 67.076 289.188 62.1027 291.963 63.0886C290.687 69.0939 293.138 73.693 298.187 77.382C301.3 79.6626 303.393 80.7725 306.05 76.7766C307.376 74.7798 308.129 71.5553 311.591 71.6226C306.616 86.5067 308.957 101.05 313.903 115.367C316.833 123.852 320.188 132.195 323.572 140.511C324.186 142.022 324.804 143.138 323.305 144.179C300.02 160.318 293.604 186.758 282.779 210.502C281.169 214.036 279.702 217.632 278.096 221.168C277.549 222.368 277.07 223.432 278.516 224.304C278.59 227.64 276.763 229.151 273.623 229.399C262.089 235.455 250.207 240.388 237.353 243.173C221.229 246.671 205.557 245.588 190.002 240.575C187.497 239.768 185.006 238.77 182.277 239.001C181.369 235.861 183.538 233.994 185.357 232.172C197.561 219.881 209.109 206.805 224.651 198.41C227.497 196.873 227.804 195.204 225.967 192.568C221.994 186.893 217.658 181.445 214.406 175.29C213.391 173.398 211.514 171.647 213.078 169.182Z" fill="#EEC4D9"/>
<path d="M197.302 144.317C181.243 157.837 167.589 173.421 156.696 191.401C149.491 203.294 143.033 215.589 136.776 227.997C128.677 244.047 120.41 260.016 112.216 276.018C108.485 266.425 104.159 257.01 103.346 246.536C103.571 230.204 102.886 213.88 107.924 197.888C114.919 175.683 126.144 156.027 140.925 138.164C150.676 126.379 161.789 116.337 174.916 108.442C179.047 105.96 181.159 106.521 183.017 111.068C187.574 122.234 192.524 133.244 197.302 144.317Z" fill="#FDFDFD"/>
<path d="M285.76 64.2044C276.315 75.7169 268.788 88.4696 261.627 101.462C260.643 103.249 259.68 105.054 259.809 107.2C259.334 109.552 257.314 110.322 255.514 111.16C239.781 118.49 225.282 127.875 210.999 137.645C209.019 138.999 207.135 140.733 204.43 140.47H203.86L203.295 140.412C199.627 127.667 196.148 114.866 192.178 102.221C190.967 98.3636 191.547 96.6631 195.108 94.5485C219.106 80.2719 244.569 69.0536 270.182 58.1465C279.34 54.2452 288.639 50.676 299.532 46.2871L285.76 64.2044Z" fill="#FEFDFD"/>
<path d="M246.335 333.863C247.529 355.063 244.023 375.308 234.03 394.227C220.771 403.936 209.91 415.878 201.367 429.875C198.704 434.245 197.374 439.481 191.799 441.621C190.246 442.216 189.205 444.381 190.786 446.277C192.77 448.66 191.448 450.35 189.794 452.042C184.394 452.904 179.61 451.149 175.021 448.572C167.599 446.148 162.166 440.795 156.761 435.63C146.582 425.919 136.625 415.964 127.334 405.362C126.094 401.105 129.604 399.72 132.114 398.12C134.922 396.331 138.233 395.783 140.721 396.252C134.226 397.399 127.887 395.577 123.321 389.286C119.031 383.375 116.99 376.785 116.767 371.144C117 374.296 118.001 379.131 116.504 383.888C115.847 385.977 115.891 388.458 113.215 389.311C108.866 387.694 107.071 383.566 104.653 380.205C98.3706 371.476 92.4221 362.504 86.3411 353.63C88.5271 341.632 92.0164 329.985 95.7663 318.403C96.4515 316.282 96.9182 314.09 97.4857 311.931C99.4154 311.538 99.8441 313.171 100.597 314.293C117.391 339.357 140.831 350.534 170.904 348.373C181.834 347.587 192.394 345.171 202.854 342.208C215.104 338.737 227.609 336.347 239.926 333.169C242.112 332.616 244.382 332.026 246.335 333.863Z" fill="#8E4F91"/>
<path d="M246.335 333.863C230.078 336.825 214.049 340.8 198.16 345.275C187.494 348.272 176.608 349.641 165.699 350.91C143.693 353.469 110.6 336.159 99.9345 316.764C99.0642 315.185 98.3033 313.544 97.4919 311.929C99.0117 307.936 100.712 303.982 101.999 299.904C103.457 295.28 105.215 296.635 107.279 299.345C109.28 299.734 110.255 301.373 111.453 302.752C126.684 320.287 145.543 331.94 168.181 337.191C177.354 339.318 186.7 340.436 194.742 338.803C184.421 339.806 173.18 337.561 162.306 333.416C159.189 332.228 155.502 331.421 154.109 327.616C158.674 326.038 163.332 324.674 167.772 322.811C171.591 321.205 174.435 321.455 176.198 326.061C178.95 323.354 174.517 318.494 179.797 317.256C183.145 316.48 186.246 314.698 189.54 313.621C192.634 312.612 195.179 308.997 199.112 311.538C199.953 312.081 201.668 312.051 201.885 311.135C203.757 303.189 211.764 303.09 216.947 299.641C223.375 295.355 230.003 291.288 236.496 287.029C242.202 295.839 243.012 306.18 245.482 315.99C246.356 319.444 246.095 323.034 250.455 325.014C253.139 326.231 251.651 329.218 250.034 331.263L246.335 333.863Z" fill="#B172A9"/>
<path d="M154.111 327.62C168.194 335.233 171.276 335.857 201.002 337.079C183.927 349.159 129.358 332.845 107.285 299.35C109.974 296.477 109.915 292.941 109.696 289.366C109.589 287.634 109.536 285.946 112.113 287.201C112.454 290.719 114.928 293.059 117.024 295.462C127.887 307.89 139.073 319.985 154.111 327.62Z" fill="#E9D3E8"/>
<path d="M89.9795 257.528L88.7183 248.922C88.2979 245.282 87.7829 241.649 87.4992 237.992C87.3646 236.254 87.9721 234.534 90.1518 234.694C91.8818 234.822 92.3127 236.376 92.4115 237.878C93.4624 253.629 99.2702 267.726 107.224 281.12C110.127 286.009 105.873 289.465 104.21 294.697C97.6538 283.962 92.7289 273.74 91.2344 262.089C91.0242 260.508 91.4677 258.759 89.9795 257.528Z" fill="#EED6EC"/>
<path d="M250.039 331.277C249.297 329.331 252.864 324.583 246.612 326.142C245.654 326.38 245.278 324.881 245.141 323.813C243.604 311.241 239.487 299.273 236.489 287.043L242.585 282.074C246.625 281.246 250.125 283.302 253.81 284.26C267.262 287.758 280.793 290.224 294.752 287.945C305.419 287.407 315.141 283.899 324.377 278.696C327.429 276.979 328.247 275.44 325.289 272.811C316.764 265.244 315.879 256.041 318.656 245.397C321.809 233.304 326.401 221.628 328.768 209.325C332.512 197.714 336.642 186.23 340.211 174.562C340.875 172.393 341.777 170.358 343.661 168.944C344.047 168.883 344.43 168.809 344.81 168.717C346.912 169.82 348.144 171.66 349.149 173.726C362.77 201.791 380.468 227.194 399.922 251.455C401.959 253.998 404.25 256.342 406.424 258.776C400.593 264.611 392.59 266.364 385.492 269.774C374.631 274.991 363.335 278.961 351.406 281.229C348.253 281.83 345.397 280.031 342.013 281.391C347.43 285.784 353.878 286.707 360.022 288.241C363.762 289.175 367.65 289.503 370.791 292.069C370.919 293.16 370.518 293.692 369.359 293.419C343.07 302.196 316.86 311.231 290.453 319.645C277.112 323.906 263.939 328.898 250.039 331.277Z" fill="#AA67A5"/>
<path d="M348.569 151.564C335.907 141.281 335.188 126.895 346.448 114.819C350.69 110.27 355.587 106.769 360.882 103.679C364.525 102.394 368.122 100.946 371.813 99.8572C380.967 97.1436 388.332 101.266 390.02 110.722C393.478 130.098 374.158 154.813 353.893 152.833C352.098 152.667 350.345 152.001 348.569 151.564Z" fill="#F4DFEC"/>
<path d="M450.918 80.0879C452.144 91.5184 453.23 102.888 448.938 114.281C444.738 107.626 446.18 87.5016 450.918 80.0879Z" fill="#EABED3"/>
<path d="M415.618 105.181C414.661 97.7209 419.918 87.9888 426.436 85.0018C427.338 84.5814 428.328 83.7932 429.207 84.6718C430.174 85.6387 429.932 86.984 429.444 88.1296C426.474 95.1187 423.078 101.765 415.618 105.181Z" fill="#E7C7D8"/>
<path d="M394.117 49.6549C394.327 52.9445 392.37 54.9309 389.57 55.0927C386.23 55.2861 384.469 52.7238 384.433 49.5561C384.399 46.5587 386.133 44.4693 389.295 44.5429C392.385 44.6144 393.946 46.607 394.117 49.6549Z" fill="#F9F2F7"/>
<path d="M379.285 188.893C379.14 185.78 380.256 183.76 383.699 183.68C387.113 183.6 388.586 185.834 388.624 188.651C388.66 191.173 387.298 193.336 384.237 193.542C380.918 193.767 379.335 192.149 379.285 188.893Z" fill="#FAF6F9"/>
<path d="M427.231 198.138C427.046 199.99 425.852 201.264 424.183 201.333C422.514 201.403 421.148 200.282 421.173 198.277C421.198 196.423 422.058 194.996 424 195.141C425.606 195.259 427.105 196.095 427.231 198.138Z" fill="#F8EFF6"/>
<path d="M343.656 168.951C339.32 182.576 335.284 196.3 330.008 209.61C324.123 210.451 322.067 214.302 320.608 219.731C315.774 237.767 309.553 255.402 302 272.478C300.755 275.244 299.702 278.073 299.307 281.109C298.224 283.974 297.657 287.066 295.643 289.517C277.192 292.459 259.664 288.863 242.581 282.065C255.886 267.923 265.404 251.448 272.484 233.478C273.001 232.17 273.249 230.745 273.623 229.394C275.257 227.697 276.888 225.999 278.516 224.301C289.812 217.995 297.875 208.359 305.525 198.28C312.881 188.584 318.038 177.717 322.027 166.33C323.425 162.337 324.72 161.075 328.892 163.177C333.603 165.534 338.725 167.062 343.656 168.951Z" fill="#B67BA8"/>
<path d="M518.331 157.938C517.385 158.251 516.147 159.115 515.535 158.793C509.202 155.46 501.822 154.201 496.348 149.181C505.548 145.566 512.203 148.225 518.331 157.938Z" fill="#D58EBD"/>
<path d="M155.261 500.055C152.717 499.672 151.319 498.201 151.477 495.493C151.635 492.786 153.609 492.078 155.782 492.208C158.172 492.353 159.425 494.003 159.355 496.359C159.301 498.836 157.758 499.96 155.261 500.055Z" fill="#F0ECF2"/>
<path d="M181.014 492.523C184.514 495.447 185.798 497.957 179.78 499.096C176.446 496.202 177.583 494.148 181.014 492.523Z" fill="#EFE7F4"/>
<path d="M147.734 478.015C147.452 479.337 146.83 480.43 145.342 480.216C144.08 480.033 143 479.141 143.179 477.767C143.334 476.558 144.194 475.492 145.621 475.562C147.048 475.631 147.698 476.628 147.734 478.015Z" fill="#E3DDEF"/>
<path d="M224.3 614.578C228.197 614.747 231.211 616.628 231.207 620.598C231.207 623.913 228.832 625.906 225.019 625.782C221.378 625.664 218.204 624.882 218.274 620.649C218.328 617.183 219.919 614.29 224.3 614.578Z" fill="#631F75"/>
<path d="M146.552 576.35C144.791 575.835 143.954 574.669 144.044 572.762C144.143 570.692 145.402 569.74 147.216 569.922C149.108 570.112 150.054 571.797 149.98 573.445C149.903 575.224 148.494 576.235 146.552 576.35Z" fill="#E7DAEC"/>
<path d="M113.23 389.316C116.494 382.611 115.649 375.357 116.034 366.236C121.093 381.127 122.514 397.499 142.939 395.664C136.877 397.869 129.94 398.172 127.342 405.363C123.828 414.748 125.938 424.369 126.195 433.905C126.253 436.07 127.126 438.227 125.913 441.111C121.869 432.409 122.888 422.805 118.3 414.929L118.339 415.013C116.208 404.364 113.534 402.931 94.3013 402.491C101.763 399.012 110.405 398.17 113.23 389.316Z" fill="#FBF9FC"/>
<path d="M126.943 421.135C127.266 419.052 126.136 415.357 130.075 415.506C132.967 415.616 135.208 418.13 135.355 421.236C135.502 424.312 133.389 425.936 130.4 426.258C126.501 426.683 126.926 423.904 126.943 421.135Z" fill="#9A4DB0"/>
<path d="M118.306 414.932C118.432 417.755 117.28 419.414 114.312 418.527C111.708 417.747 109.29 416.444 109.719 412.996C109.948 411.161 111.19 410.018 112.782 409.513C114.463 408.977 115.272 410.26 116.004 411.615C116.653 412.82 116.773 414.438 118.344 415.019L118.306 414.932Z" fill="#A754A5"/>
<path d="M447.383 440.713C451.427 440.847 455.03 442.195 458.235 444.642C456.154 446.323 457.254 448.215 457.733 450.193C460.337 460.9 460.972 471.799 460.598 482.773C460.501 485.62 460.119 488.449 457.71 490.456C456.108 492.617 454.811 494.87 455.704 497.714C454.954 501.887 457.127 505.769 456.905 509.887C423.972 527.845 388.87 541.5 352.459 550.518C348.342 551.538 344.428 553.642 339.982 553.118C333.178 555.491 326.088 556.17 318.962 556.677C326.553 549.873 335.764 545.282 343.402 538.478C350.702 531.979 359.028 526.532 364.384 518.122C368.107 512.281 373.364 514.906 378.078 515.207C383.333 515.539 388.544 516.55 393.765 517.326C402.861 518.679 409.011 512.264 416.128 508.642C422.466 505.416 428.009 500.567 434.443 497.609C444.993 492.758 446.163 483.736 447.185 473.935C448.335 462.83 446.903 451.78 447.383 440.713Z" fill="#532C6F"/>
<path d="M326.67 451.263L327.831 448.856C330.126 446.41 332.304 447.301 333.607 449.649C334.557 451.364 334.536 453.788 332.136 454.78C328.844 456.148 327.417 454.122 326.67 451.263Z" fill="#F0E6F2"/>
<path d="M412.847 433.28C412.858 435.193 412.036 436.622 410.047 436.521C408.059 436.421 406.525 435.241 406.556 433.043C406.586 430.752 408.173 429.915 410.262 429.934C412.498 429.963 412.812 431.529 412.847 433.28Z" fill="#F2EAF7"/>
<path d="M363.466 425.129C359.945 424.995 358.713 423.694 358.787 421.686C358.847 419.988 359.947 418.716 361.963 418.868C363.917 419.013 364.863 420.392 364.966 422.044C365.074 423.759 364.283 425.188 363.466 425.129Z" fill="#F1EAF3"/>
<path d="M346.862 491.479C348.697 491.777 349.744 492.83 349.735 494.758C349.735 496.799 348.487 497.738 346.608 497.665C344.695 497.587 343.627 496.403 343.69 494.468C343.753 492.532 344.899 491.552 346.862 491.479Z" fill="#F8F2FA"/>
<path d="M551.208 466.747C550.504 469.08 549.497 470.823 546.979 470.497C544.679 470.199 543.224 468.538 543.435 466.382C543.664 464.05 545.291 462.295 547.92 462.609C550.34 462.886 550.972 464.856 551.208 466.747Z" fill="#E8D7E9"/>
<path d="M330.483 385.373C334.576 385.339 336.369 386.804 336.394 390.148C336.422 394.216 334.132 396.336 330.353 396.347C327.232 396.347 325.363 394.012 325.556 391.054C325.769 387.798 327.246 385.03 330.483 385.373Z" fill="#F7EDF8"/>
<path d="M307.503 464.158C304.863 463.456 302.964 462.001 303.12 459.113C303.252 456.656 304.741 454.655 307.288 454.76C309.989 454.871 311.654 456.683 311.606 459.63C311.564 462.348 309.84 463.519 307.503 464.158Z" fill="#F5EDF6"/>
<path d="M309.109 494.31C309.209 495.935 308.306 496.389 306.887 496.412C304.852 496.461 303.912 495.282 303.854 493.495C303.807 492.129 304.812 491.372 306.193 491.343C308.198 491.309 309.039 492.457 309.109 494.31Z" fill="#F1E9F2"/>
<path d="M325.056 406.936C325.033 408.504 324.045 409.07 322.685 409.072C321.325 409.074 320.297 408.456 320.348 406.932C320.402 405.265 321.443 404.199 323.036 404.336C324.318 404.439 325.067 405.534 325.056 406.936Z" fill="#F6EEF9"/>
<path d="M369.364 293.427L370.795 292.078C380.771 290.363 389.608 285.562 398.752 281.637C402.876 279.861 407.008 278.215 411.418 277.324C394.392 297.329 374.596 314.222 352.773 329.13C360.58 318.262 367.073 306.788 369.364 293.427Z" fill="#8C4D90"/>
<path d="M250.518 347.092C248.973 346.842 247.758 346.357 247.937 344.826C248.122 343.225 249.297 342.38 250.915 342.304C252.191 342.239 253.503 342.361 253.574 344.023C253.669 346.226 251.666 346.325 250.518 347.092Z" fill="#E7DEED"/>
<path d="M372.933 350.02C371.165 350.001 370.036 349.299 369.925 348.068C369.784 346.548 370.856 345.36 372.41 345.348C373.7 345.348 374.396 346.43 374.499 347.74C374.612 349.159 374.005 349.98 372.933 350.02Z" fill="#ECE9F2"/>
<path d="M455.704 497.711C451.58 493.97 453.237 491.826 457.71 490.453C460.77 493.902 460.709 496.49 455.704 497.711Z" fill="#EAE2EE"/>
<path d="M434.855 241.585C436.404 241.314 437.693 240.019 439.452 240.534C441.987 241.27 443.128 243.178 442.948 245.524C442.765 247.924 441.159 249.774 438.609 249.715C436.4 249.665 434.939 248.126 434.775 245.795C434.676 244.397 434.834 242.983 434.878 241.574L434.855 241.585Z" fill="#F3E5F1"/>
<path d="M464.461 194.171C464.533 196.239 463.621 197.389 461.632 197.339C459.549 197.284 458.269 196.288 458.2 194.009C458.132 191.697 459.492 190.547 461.489 190.585C463.61 190.625 464.649 192.105 464.461 194.171Z" fill="#F9F1F9"/>
<path d="M481.99 198.908C483.552 199.287 484.699 200.195 484.79 201.7C484.882 203.242 483.892 204.386 482.267 204.474C480.642 204.563 479.566 203.533 479.535 201.952C479.526 200.407 480.663 199.482 481.99 198.908Z" fill="#F1E8F3"/>
<path d="M213.077 169.181C216.243 177.969 222.326 184.992 227.72 192.328C230.646 196.307 229.725 197.373 226.051 199.447C208.546 209.362 194.597 223.305 182.277 239.007C169.26 253.819 158.075 269.872 150.138 287.983C148.21 292.382 146.832 292.42 144.154 288.933C142.037 286.177 139.864 283.453 137.53 280.882C130.804 273.471 129.574 266.055 134.199 256.459C149.791 224.104 166.83 192.746 190.229 165.217C194.433 160.269 198.301 155.028 202.536 149.662C206.273 156.334 208.079 163.642 213.077 169.181Z" fill="#FEFDFD"/>
<path d="M263.548 113.34C266.911 118.694 263.872 124.248 263.214 129.343C260.902 147.197 263.437 164.357 268.515 181.283C269.831 185.671 268.999 187.267 264.704 188.604C256.91 191.034 249.255 193.964 241.688 197.045C236.59 199.122 233.7 198.363 231.178 192.932C227.583 185.18 224.241 177.224 219.329 170.121C215.898 163.217 212.465 156.312 209.029 149.406C208.043 147.42 206.694 145.536 207.097 143.121C207.4 141.257 208.899 140.489 210.307 139.67C225.689 130.726 241.131 121.887 257.261 114.335C259.22 113.42 261.167 111.827 263.548 113.34Z" fill="#FDFDFD"/>
<path d="M263.548 113.341C247.041 120.197 231.676 129.236 216.216 138.093C213.206 139.819 210.141 141.446 207.102 143.119C206.496 142.887 205.945 142.531 205.485 142.074C205.025 141.617 204.666 141.069 204.43 140.464C221.889 127.712 240.283 116.515 259.809 107.201C271.187 104.231 282.254 99.9783 294.176 98.9883C283.817 103.514 272.61 106.179 263.548 113.341Z" fill="#CA96BB"/>
<path d="M172.421 303.23C172.245 305.435 171.107 306.688 168.905 306.682C166.418 306.682 165.134 305.286 165.171 302.829C165.207 300.598 166.508 299.491 168.688 299.466C171.221 299.43 172.409 300.783 172.421 303.23Z" fill="#FAF6F9"/>
<path d="M176.425 382.843C176.688 380.756 177.657 379.451 179.837 379.356C182.107 379.26 183.141 380.685 183.345 382.635C183.555 384.714 182.254 386.284 180.373 386.541C177.897 386.873 177.18 384.683 176.425 382.843Z" fill="#F3E2F2"/>
<path d="M213.298 349.432C213.286 351.504 212.081 352.585 209.853 352.484C207.911 352.394 206.803 351.267 206.845 349.352C206.891 347.147 208.281 346.01 210.404 346.008C212.42 346.008 213.229 347.355 213.298 349.432Z" fill="#F6F1F7"/>
<path d="M295.652 289.525C295.143 286.175 296.797 283.47 298.287 280.718C298.479 280.649 298.668 280.569 298.861 280.508C301.194 279.814 304.747 281.979 305.751 278.387C306.851 274.496 302.525 274.393 300.707 272.52C304.982 260.934 309.382 249.399 313.489 237.745C315.915 230.863 318.578 223.946 319.847 216.816C321.012 210.268 323.372 207.437 330.027 209.606C329.186 219.668 324.331 228.644 322.281 238.384C321.529 241.958 320.629 245.514 319.549 249.003C316.858 257.71 319.309 264.888 325.703 271.036C327.448 272.718 329.067 274.528 330.918 276.478C319.986 283.816 308.617 288.804 295.652 289.525Z" fill="#D19CBF"/>
<path d="M300.699 272.525C303.864 271.894 306.498 272.703 307.679 275.873C308.31 277.555 308.442 279.728 306.777 280.981C303.997 283.083 301.068 282.515 298.288 280.72C297.859 277.622 298.988 274.986 300.699 272.525Z" fill="#F9F4F7"/>
<path d="M359.421 536.953C357.53 536.487 356.136 535.139 356.405 533.132C356.655 531.265 358.055 529.516 360.21 530.042C362.043 530.488 363.392 532.129 363.06 534.206C362.785 535.944 361.523 537.042 359.421 536.953Z" fill="#EBE0F0"/>
</svg>
