<svg width="797" height="244" viewBox="0 0 797 244" fill="none" xmlns="http://www.w3.org/2000/svg">
<path d="M782.66 191.723C770.038 197.732 756.385 200.45 742.99 203.902C686.646 218.43 629.403 228.221 571.624 234.622C494.029 243.219 416.202 245.054 338.197 241.481C284.498 239.019 231.07 234 177.932 226.115C125.742 218.374 74.0251 208.143 23.111 194.136C20.5634 193.436 18.102 192.41 15.6007 191.536C16.7715 187.662 16.0967 184.149 14.3647 180.452C11.2559 173.824 8.64731 166.959 6.32042 160C4.68719 155.115 3.84641 150.154 4.33406 145.002L5.49436 142.421C8.78816 139.861 12.5086 139.268 16.5213 140.01C44.7551 150.331 73.7434 157.973 103.133 164.206C121.561 166.77 139.741 170.795 158.171 173.278C172.749 175.241 187.288 177.446 201.922 179.054C219.188 180.946 236.453 182.884 253.729 184.692C264.685 185.839 275.678 186.794 286.663 187.414C307.069 188.561 327.502 189.345 347.919 190.302C394.82 192.498 441.722 190.819 488.621 191.046C495.289 191.079 502.034 189.896 508.8 189.944C510.641 189.957 512.636 189.82 512.701 187.172C512.966 182.337 511.301 177.61 511.861 172.759C512.577 170.728 513.868 170.27 515.716 171.357C518.974 174.285 519.352 178.562 520.72 182.354C522.728 187.912 524.294 193.625 526.425 198.287C527.785 192.524 525.334 186.682 523.428 180.731C524.989 177.394 527.033 179.224 528.876 180.311C532.195 182.26 534.734 185.335 538.318 186.924C547.693 187.157 556.918 185.522 566.197 184.694C579.756 183.483 593.274 181.751 606.824 180.376C611.074 179.956 615.231 178.667 619.553 178.947C667.205 173.311 713.539 161.812 759.232 147.472C763.927 146 768.438 143.999 773.126 142.471C777.397 141.078 780.077 142.314 782.154 146.255C790.08 161.364 790.093 176.481 782.66 191.723Z" fill="#1B142E"/>
<path d="M643.518 66.0981C642.293 67.0146 641.068 67.9318 639.844 68.8496C637.456 72.0383 633.821 74.2391 632.443 78.2244C630.971 82.2686 634.099 84.3748 636.3 86.5125C645.147 95.097 654.782 102.765 664.84 109.88C669.364 113.082 673.925 116.23 678.238 119.709C679.92 121.063 682.57 122.542 681.305 125.038C680.229 127.158 677.547 126.131 675.695 125.563C663.247 121.742 650.433 119.888 637.523 119.257C615.032 118.156 592.581 116.205 569.961 118.023C554.875 119.234 539.619 119.379 524.489 117.561C518.167 116.802 511.753 118.124 505.49 116.533C499.381 107.236 490.189 106.851 480.339 107.259C474.889 107.484 469.489 108.846 463.99 108.127C461.569 107.562 459.044 107.322 456.858 105.973C454.308 103.646 451.265 102.609 447.862 102.639C439.473 102.719 431.061 102.008 422.714 103.446C421.099 103.75 419.454 103.858 417.814 103.768C397.576 102.349 377.326 103.728 357.107 103.457C336.493 103.177 315.881 100.894 295.284 99.2148C264.595 96.7134 234.295 92.0134 204.129 86.0837C190.033 83.3133 176.364 78.958 162.529 75.248C160.173 71.6558 157.388 68.3809 154.607 65.1018C147.33 59.9477 142.85 53.131 142.117 44.082C155.225 51.5798 170.041 54.3271 184.112 59.1679C219.539 70.6384 255.836 77.8755 292.845 81.6065C318.721 84.2193 344.615 86.1405 370.652 86.8257C385.996 87.2293 401.364 88.0533 416.704 87.6665C445.144 86.9519 473.549 85.4307 501.92 83.1031C540.624 79.9144 578.76 73.5433 616.556 64.8811C625.556 62.8169 634.435 60.3135 642.673 55.9624C643.934 55.2919 645.296 54.7874 646.789 54.985C647.686 55.5378 648.05 56.3912 648.132 57.3981C647.602 60.8306 645.649 63.5127 643.518 66.0981Z" fill="#1C142F"/>
<path d="M182.99 60.1686C171.476 56.6583 159.964 53.155 148.452 49.6587C145.461 48.757 144.248 45.9214 142.117 44.099C139.899 34.6821 142.854 26.352 147.521 18.3813C151.267 14.9761 155.864 14.1584 160.694 14.0365C166.651 14.0092 172.818 12.8993 177.962 17.2567C183.584 21.9925 190.464 24.1933 197.184 26.6484C224.499 36.5991 252.935 41.4505 281.656 44.9356C285.312 45.3791 288.91 46.1968 292.624 46.304C294.356 46.3523 296.492 46.5625 296.446 49.2467C294.083 52.6687 290.51 53.3035 286.777 53.1837C282.933 53.0239 279.087 53.4154 275.355 54.3461C258.736 53.7429 242.297 51.355 225.979 48.4185C203.187 44.3154 180.387 40.0695 158.451 32.2964C157.713 32.0357 156.915 31.7036 155.821 32.4645C157.64 35.5019 162.151 36.3763 162.653 40.41C163.237 45.1016 160.61 46.6108 156.168 46.1084C157.43 48.7948 159.658 48.841 161.556 49.3371C192.108 57.415 223.005 63.9501 254.404 67.4856C273.915 69.6842 293.522 71.1304 313.184 72.1099C335.358 73.2219 357.393 71.2691 379.491 71.5445C380.31 71.5445 381.132 71.4751 381.946 71.5991C383.499 71.8324 384.876 72.5933 384.847 74.2266C384.821 75.6139 383.323 76.0953 382.127 76.2445C377.656 76.8015 373.212 77.7053 368.703 77.8441C320.284 79.3512 272.069 77.0727 224.203 69.3542C210.301 67.1135 196.617 63.7167 182.99 60.1686Z" fill="#303C71"/>
<path d="M632.693 77.2976C631.16 71.1661 636.487 70.8403 639.839 68.8477C640.68 73.5834 643.77 76.8057 647.272 79.6896C677.582 104.644 712.853 118.652 750.885 126.545C759.282 128.287 767.723 129.826 776.108 131.632C780.756 132.632 785.079 134.49 788.651 137.786C788.052 139.44 786.128 138.503 784.97 139.781L788.911 140.254C787.505 144.229 784.161 142.963 781.695 142.425C754.548 136.479 727.126 131.6 701.055 121.458C677.958 112.479 656.428 99.9001 637.264 84.1879C635.049 82.3718 632.77 80.5536 632.693 77.2976Z" fill="#C686A4"/>
<path d="M154.607 65.1055C158.619 66.6336 162.066 68.6557 162.077 73.6731C161.568 76.5465 159.428 78.1356 157.32 79.7689C132.223 99.2437 104.689 114.33 74.9353 125.382C71.7824 126.555 68.6084 128.56 64.932 127.089C63.0886 124.541 63.9967 121.943 64.7954 119.345C81.1278 112.902 97.7123 106.975 112.678 97.581C127.712 88.141 142.888 78.8419 154.607 65.1055Z" fill="#B97E9D"/>
<path d="M574.474 5.47999L577.064 3.5041C578.434 2.24291 580.217 2.36695 581.884 2.05376C592.219 -0.14491 601.491 4.2524 611.047 6.81471C612.644 7.23511 613.914 8.37858 614.296 10.1779C612.812 13.1206 610.221 12.1432 607.921 11.8595C601.533 11.0586 595.328 9.31395 588.946 8.06538C590.182 9.62294 592.179 10.5878 592.457 12.8117C591.952 16.7718 588.639 17.9321 585.73 19.229C562.93 29.3942 538.741 34.4872 514.263 38.3444C506.236 39.6055 498.187 41.3733 489.943 40.4358C487.398 39.4815 484.688 39.7485 482.071 39.4353C480.709 39.2734 478.83 39.1893 478.744 37.4426C478.656 35.6433 480.529 35.492 481.878 35.2734C485.113 34.7479 488.394 35.0254 491.667 34.6428C509.849 32.5555 527.344 27.5192 544.498 21.5201C555.199 17.7702 565.217 12.2042 574.474 5.47999Z" fill="#453564"/>
<path d="M64.7954 119.342C66.9751 121.864 64.85 124.412 64.8142 126.949C64.1942 129.637 61.7412 130.102 59.7317 130.795C47.7506 134.864 35.5725 138.328 23.2435 141.173C20.9649 141.705 18.8146 140.807 16.6159 141.234L5.49438 142.422C7.91586 136.956 12.5549 134.152 17.957 132.591C33.5432 128.082 49.1693 123.745 64.7954 119.342Z" fill="#747D97"/>
<path d="M4.33413 145.002C6.66733 155.695 9.50503 166.232 14.1924 176.176C15.4978 178.945 16.5361 181.839 17.8772 184.584C19.4137 187.737 18.7012 189.982 15.6007 191.533L13.0237 190.682C-0.277582 179.476 -3.7858 161.034 4.33413 145.002Z" fill="#1F2C45"/>
<path d="M160.574 15.6784C156.019 15.5817 151.815 17.175 147.527 18.3753C149.629 13.671 154.188 12.4897 158.445 11.4009C179.809 5.93577 201.466 2.60621 223.606 3.43439L226.112 5.71716C224.121 8.26055 221.151 8.47073 218.334 8.7503C205.266 10.0472 192.27 11.8444 179.265 13.7026C173.056 14.5896 166.695 14.0326 160.574 15.6784Z" fill="#C989AA"/>
<path d="M613.991 10.9505C613.727 8.41551 611.494 8.44285 609.863 8.0729C600.56 5.97093 591.616 2.15586 581.884 2.05287C590.01 -2.07542 598.191 1.08805 606.159 2.35975C617.952 4.23891 629.676 6.70453 641.042 10.6058C644.661 11.8481 647.722 13.5023 649.546 16.9811C646.057 19.4404 643.03 16.403 639.766 16.1802C633.733 14.3599 627.446 13.3846 621.626 10.7907C621.153 10.5805 622.027 11.6925 621.556 12.157C619.309 13.9605 616.327 12.8969 613.943 14.1581C612.713 14.1959 611.66 13.9269 611.229 12.5879C611.568 11.0577 613.214 11.7387 613.991 10.9505Z" fill="#D99DC6"/>
<path d="M639.951 14.7578L649.546 16.9838C657.849 29.5957 657.954 49.2386 649.782 60.0995C648.298 60.9508 647.222 60.9403 647.146 58.8383C647.205 58.0522 647.264 57.2661 647.325 56.4799C647.419 46.9979 648.84 37.4507 645.544 28.1558C644.321 24.7065 643.713 21.0238 641.075 18.2261C640.201 17.2255 639.463 16.1914 639.951 14.7578Z" fill="#4F607D"/>
<path d="M647.146 58.8438C647.766 59.8065 648.727 60.0545 649.782 60.1049C648.077 62.5054 646.225 64.7503 643.518 66.104C644.918 63.775 644.384 60.4833 647.146 58.8438Z" fill="#302241"/>
<path d="M632.693 77.297C638.309 83.9392 645.397 88.8578 652.42 93.787C681.873 114.491 714.888 126.62 749.861 133.983C760.751 136.276 771.619 138.677 782.501 140.997C784.701 141.466 786.942 141.908 788.916 140.253C796.199 145.401 796.325 153.544 796.771 161.044C797.513 173.519 794.86 184.954 782.66 191.722C782.564 183.51 787.1 176.147 786.536 167.684C785.988 159.442 782.936 152.298 779.623 145.056C777.922 141.342 775.366 143.541 773.443 144.243C753.882 151.39 733.886 157.077 713.791 162.454C686.846 169.664 659.51 175.001 631.974 179.356C627.98 179.987 623.9 180.208 619.86 180.618C613.741 179.056 607.753 181.168 601.821 181.784C583.42 183.699 564.967 184.979 546.566 186.829C543.119 187.176 539.71 187.67 536.292 188.174C533.332 185.801 530.354 183.451 527.422 181.046C526.284 180.113 525.257 179.031 523.995 180.836C519.48 179.255 517.799 176.144 518.951 171.501C524.504 167.367 531.228 168.792 537.315 168.294C557.48 166.646 577.499 163.993 597.209 161.546C565.375 155.575 533.94 147.408 504.247 133.466C498.549 130.792 498.059 129.14 500.979 123.404C502.355 120.699 503.116 117.596 505.603 115.523C515.856 114.88 526.028 116.276 536.237 116.713C558.171 117.653 580.047 114.687 601.964 115.58C612.997 116.028 624.093 116.068 635.045 117.024C650.377 118.363 665.877 119.582 681.154 124.1C676.559 120.669 672.056 117.102 667.348 113.834C655.747 105.783 644.676 97.0871 634.511 87.2835C632.478 85.3223 630.563 82.9933 629.369 80.4688C627.808 77.194 629.044 75.6974 632.693 77.297Z" fill="#332544"/>
<path d="M16.616 141.241C32.1979 136.888 48.0805 133.582 63.2589 127.833C63.8096 127.623 64.2972 127.25 64.8122 126.954C100.724 115.568 133.074 97.6778 162.077 73.6816C172.587 74.9954 182.298 79.357 192.577 81.6208C214.839 86.5352 237.258 90.3566 259.84 93.4907C281.652 96.5175 303.561 97.9048 325.48 99.6032C339.719 100.705 353.975 102.531 368.218 101.722C378.221 101.152 388.252 100.085 398.186 100.951C405.946 101.627 413.782 102.762 421.389 101.693C430.817 100.366 440.175 101.062 449.556 100.757C453.129 100.644 456.648 101.131 457.602 105.604C455.889 109.094 452.557 108.547 449.573 108.757C442.245 109.268 434.859 107.916 427.563 109.535C396.443 109.436 365.344 110.95 334.195 109.226C319.498 108.41 304.738 108.295 290.012 107.662C286.331 107.502 282.632 107.809 278.978 107.198C276.019 106.321 272.99 106.081 269.894 106.092C246.352 106.163 222.946 103.767 199.526 101.678C183.019 100.206 166.811 101.573 151.136 107.341C146.493 109.049 142.142 111.307 138.314 114.458C132.244 119.45 131.434 122.681 134.394 129.893C134.938 131.219 135.598 132.505 135.325 134.01C134.629 135.387 133.456 136.283 132 136.476C114.585 138.788 97.2016 141.586 82.8514 140.613C106.312 145.79 132.979 152.056 160.107 155.999C176.293 158.353 192.478 160.72 208.737 162.677C240.266 166.307 271.882 168.72 303.569 170.427C317.653 171.188 331.704 172.779 345.844 172.739C360.794 172.769 375.795 173.612 390.661 173.37C416.235 172.95 441.85 173.238 467.427 171.762C479.883 171.045 492.371 170.412 504.861 170.181C507.669 170.131 510.673 169.801 512.975 172.115C513.248 177.042 514.898 181.849 514.253 186.856C512.481 189.269 509.803 189.799 507.142 189.843C500.39 189.944 493.662 190.894 486.963 191.029C446.605 191.836 406.217 193.368 365.855 192.25C342.368 191.598 318.889 189.837 295.439 188.019C270.987 186.121 246.573 183.845 222.196 181.189C203.908 179.203 185.665 176.834 167.429 174.373C146.987 171.615 126.549 168.884 106.217 165.397C104.849 165.164 103.344 165.082 102.013 165.836C75.1077 160.233 48.7489 152.539 22.5394 144.316C20.3155 143.623 18.4804 142.448 16.616 141.241Z" fill="#332444"/>
<path d="M512.97 172.115C479.419 172.882 445.869 174.085 412.336 175.13C389.984 175.825 367.791 172.817 345.525 174.577C346.061 169.065 350.99 168.298 354.633 166.125C356.525 165.584 358.471 165.53 360.42 165.528C389.17 165.99 417.743 164.441 445.739 157.288C462.065 153.118 476.283 144.504 489.954 135.043C495.961 130.885 495.612 129.754 489.647 125.567C485.83 122.887 481.638 120.718 478.977 116.508C477.308 113.863 473.773 114.527 471.156 113.497C467.875 112.205 463.629 111.934 463.761 106.836C472.018 105.413 480.388 106.164 488.663 105.539C496.976 104.909 502.187 108.4 505.59 115.522C505.788 119.482 503.524 122.624 501.609 125.643C499.507 128.945 500.575 130.126 503.581 131.497C530.066 143.568 557.73 151.886 586.26 157.471C591.406 158.478 596.511 159.691 601.663 161.444C593.934 164.336 585.806 164.887 577.831 165.883C562.714 167.775 547.525 169.091 532.378 170.772C527.951 171.264 523.323 169.841 519.085 172.132C515.711 171.932 516.22 168.79 515.091 167.18C514.95 168.651 517.147 170.255 515.47 172.13C514.635 171.977 513.811 170.766 512.97 172.115Z" fill="#462E50"/>
<path d="M101.998 165.834C110.022 163.312 117.639 166.778 125.402 167.596C144.902 169.65 164.341 172.285 183.811 174.625C203.677 177.013 223.539 179.459 243.43 181.622C257.858 183.19 272.33 184.372 286.787 185.652C304.908 187.256 323.015 189.166 341.167 190.243C360.176 191.367 379.213 192.134 398.28 192.002C428.212 191.792 458.075 189.9 487.974 188.948C496.686 188.672 505.62 189.061 514.248 186.846C516.729 190.163 515.585 191.508 511.762 191.668C502.959 192.036 494.166 192.731 485.361 192.891C442.901 193.652 400.397 194.119 357.962 192.715C321.773 191.516 285.581 189.623 249.481 186.064C205.325 181.711 161.366 176.153 117.687 168.407C112.466 167.501 107.228 166.696 101.998 165.834Z" fill="#885193"/>
<path d="M756.844 161.49C686.766 186.458 613.783 193.522 540.105 195.963C576.635 193.11 613.254 190.754 649.517 185.383C685.833 180.011 721.865 172.963 756.844 161.49Z" fill="#5A346E"/>
<path d="M536.292 188.176C542.127 183.821 549.158 185.179 555.607 184.651C574.89 183.075 594.203 181.885 613.443 179.769C615.555 179.535 617.937 178.806 619.862 180.62C602.283 182.531 584.73 184.742 567.117 186.236C556.87 187.107 546.707 189.797 536.292 188.176Z" fill="#7E508B"/>
<path d="M515.465 172.141C515.829 170.35 513.685 168.908 514.772 166.896C517.468 167.655 516.972 171.002 519.085 172.151C519.589 175.691 521.878 178.224 523.995 180.854C529.549 187.189 528.523 194.527 527.281 203.107C521.431 192.702 519.638 181.949 515.465 172.141Z" fill="#713C7E"/>
<path d="M641.05 17.106C642.627 17.0367 643.923 17.5517 644.462 19.1218C648.649 31.3238 652.062 43.5952 647.322 56.4845C635.806 61.3064 624.068 65.378 611.814 68.0117C587.338 73.2667 562.77 77.891 537.929 81.1028C514.078 84.178 490.164 86.0845 466.145 87.3583C443.492 88.5585 420.858 90.1161 398.177 89.5591C368.205 88.8255 338.271 87.8018 308.364 84.9452C275.264 81.7923 242.438 77.458 210.34 68.6444C201.148 66.1221 191.774 64.06 182.989 60.1671C193.817 62.0589 204.684 63.7573 215.467 65.8719C231.694 69.0564 248.077 70.8304 264.504 72.5982C288.736 75.2152 312.995 75.9088 337.329 76.3712C352.949 76.6697 368.39 75.6293 384.746 74.6582C382.11 71.5052 379.911 73.7228 377.971 73.6345C362.404 72.9156 346.849 75.3602 331.343 74.5888C309.144 73.4852 286.932 72.7664 264.761 70.3365C242.023 67.8435 219.539 64.1756 197.148 59.8266C183.959 57.2601 170.981 53.5921 157.942 50.2794C154.865 49.4975 150.873 48.808 154.049 43.9546C154.747 42.8868 155.521 41.6298 156.675 43.3534C157.936 45.2452 159.765 46.2962 160.879 44.0807C161.673 42.5189 162.462 39.7233 159.964 38.1216C157.9 36.7973 155.76 35.5719 153.69 34.2708C151.706 33.0327 151.775 30.9959 152.557 29.3753C153.499 27.431 155.039 29.0453 156.242 29.4825C181.676 38.7312 208.11 43.612 234.711 47.8201C248.184 49.9515 261.669 52.0241 275.315 52.7114C295.586 52.9889 315.572 56.7493 335.757 57.8066C368.106 59.505 400.464 60.2701 432.885 58.6095C456.465 57.4009 479.892 55.1876 503.291 52.188C531.319 48.5958 559.203 44.3161 586.491 36.8205C588.623 36.234 591.042 36.2382 592.49 34.1299C597.514 29.8713 604.156 29.8566 609.937 27.5634C618.204 24.2871 626.49 21.055 634.795 17.867C636.863 17.4361 638.883 16.6562 641.05 17.106Z" fill="#302241"/>
<path d="M463.761 106.838C464.627 108.832 466.168 110.707 468.15 110.787C480.509 111.296 485.779 123.492 496.039 127.42C499.474 128.736 497.191 130.493 495.873 131.994C489.104 139.71 479.73 143.626 471.166 148.633C453.184 159.143 433.156 162.479 412.792 164.877C395.316 166.935 377.836 167.419 360.291 167.173C358.151 164.133 359.871 161.565 361.641 159.372C371.1 147.587 373.958 133.751 374.585 119.145C374.944 110.766 376.022 109.77 384.273 109.326C397.336 108.62 410.411 108.797 423.483 108.696C424.954 108.683 426.636 109.518 427.935 108.065C434.552 105.604 441.43 107.435 448.162 106.854C451.334 106.583 454.64 107.422 457.606 105.612C459.666 105.969 462.039 104.792 463.761 106.838Z" fill="#623D61"/>
<path d="M593.077 34.4782C595.42 36.2459 594.109 36.6642 592.192 37.1245C579.321 40.2228 566.537 43.7311 553.581 46.4027C542.638 48.6581 531.524 50.1589 520.439 51.6429C503.928 53.8542 487.415 56.0129 470.845 57.85C436.826 61.6168 402.741 61.7723 368.653 61.1354C347.517 60.7402 326.338 59.7123 305.337 56.5657C296.509 55.2414 287.536 54.7664 278.625 53.9424C277.385 53.8268 276.164 53.8226 275.321 52.7107C278.251 51.9204 281.192 51.0186 284.267 51.4873C288.668 52.1579 292.568 50.6739 296.435 48.9271C299.689 46.8756 303.128 47.914 306.55 48.2671C317.947 49.4379 329.312 50.9997 338.5 50.9261C325.159 50.325 309.627 48.513 294.077 46.6612C268.223 43.5839 242.549 39.6953 217.355 33.0572C205.856 30.0236 194.575 26.2181 183.589 21.6666C181.152 20.6576 178.554 19.8694 176.772 17.7107C171.643 14.9045 166.09 15.4763 160.587 15.678C174.88 11.5392 189.705 10.5009 204.354 8.4662C211.6 7.45725 218.872 6.62695 226.133 5.7168C239.392 11.224 251.888 18.4421 265.461 23.2494C277.185 23.2094 288.41 26.4633 299.832 28.4665C300.485 28.7465 301.093 29.122 301.636 29.5805C308.152 32.8533 315.399 33.4482 322.359 34.5496C351.814 39.216 381.425 42.5644 411.325 42.1903C422.758 42.0453 434.182 41.0867 445.556 40.1766C447.826 39.9937 450.54 37.1497 453.823 37.9085C454.617 38.1045 455.396 38.3603 456.152 38.6737C465.794 41.1771 475.589 39.382 485.302 39.7541C495.881 40.1577 506.355 38.8713 516.851 37.9863C520.592 38.6506 524.338 39.174 528.067 37.8791C552.151 36.461 575.455 31.4303 597.978 22.7869C602.96 20.8636 607.66 18.3413 612.306 15.7222C614.998 14.2046 617.771 12.8909 620.924 12.7143C624.419 12.5146 627.129 13.9755 627.909 17.3891C628.63 20.542 625.771 21.4396 623.513 22.3539C603.164 30.5853 582.062 36.1849 560.546 40.3469C545.942 43.174 531.268 45.7931 516.508 47.3695C498.666 49.276 480.785 51.1111 462.847 51.9939C459.572 52.1536 456.331 52.7149 453.054 52.6918C434.903 53.6839 416.75 53.1563 398.6 53.3644C418.171 53.1206 437.751 53.892 457.304 52.3575C485.203 50.7348 513.046 48.3217 540.651 43.9496C556.132 41.4924 571.567 38.5875 586.767 34.6085C588.724 34.0809 590.945 32.4119 593.077 34.4782Z" fill="#44385F"/>
<path d="M329.363 30.6986C340.007 32.8006 350.853 32.8741 361.603 33.9146C383.587 34.5452 405.568 35.819 427.569 34.3707C429.791 34.2257 432.038 34.4233 434.272 34.4632C435.37 37.5216 433.221 38.4822 431.04 39.2578C429.091 39.9494 427.002 39.8653 424.956 39.8548C400.212 39.7286 375.413 40.9247 350.757 38.3666C333.741 36.603 316.644 35.0139 300.009 30.6103C299.985 30.2025 299.966 29.7947 299.952 29.387C300.891 28.0501 302.138 27.5183 303.75 27.945L329.363 30.6986Z" fill="#4E3B6A"/>
<path d="M303.742 27.9455L299.943 29.3875C288.456 27.2645 276.647 26.9513 265.442 23.2497C266.493 20.7715 263.188 21.7132 262.974 19.4473L303.742 27.9455Z" fill="#7D6292"/>
<path d="M300 30.6116C310.3 31.8538 320.6 33.0751 330.88 34.3447C348.695 36.5433 366.561 37.9685 384.521 37.9811C399.041 37.9811 413.562 37.9391 428.082 37.9307C430.815 37.9307 433.57 38.0547 434.268 34.4645C467.553 32.7514 500.554 28.764 533.217 22.0797C544.918 19.6834 555.287 13.8378 566.123 9.24078C568.933 8.05106 571.693 6.7373 574.474 5.48242C575.752 7.87027 573.987 8.49668 572.372 9.50563C553.114 21.5121 531.936 28.23 509.954 33.2138C499.991 35.4735 490.015 36.3521 479.238 36.9721C482.908 38.9648 486.637 36.8481 489.552 38.9585C483.339 41.3295 476.829 41.0458 470.374 40.947C465.31 40.8692 460.221 41.5356 455.183 40.5266C452.328 38.9901 449.762 37.464 447.134 41.38C446.321 42.5928 443.336 42.6076 441.32 42.7169C415.977 44.0768 390.692 44.6969 365.334 41.8761C345.249 39.6417 325.285 36.9532 305.478 32.9931C303.418 32.5937 301.476 32.2133 300 30.6116Z" fill="#1A142E"/>
<path d="M176.759 17.7109C203.44 28.9082 231.339 35.6555 259.787 40.3744C283.54 44.3135 307.387 47.435 331.315 49.9805C335.128 50.3862 339.023 50.0372 342.866 50.6111C327.299 52.6016 311.946 48.7845 296.44 48.9295C285.194 47.311 273.936 45.7555 262.699 44.0613C235.213 39.9162 208.131 34.2346 182.75 22.3668C180.49 21.3137 177.442 20.9291 176.759 17.7109Z" fill="#7D81A5"/>
<path d="M455.179 40.5352C466.66 40.5352 478.115 40.0371 489.548 38.9587C504.781 39.0323 519.606 35.9865 534.421 32.9681C551.64 29.4599 568.662 25.2581 584.684 17.8108C587.496 16.5034 590.863 15.6436 591.891 12.0156L592.881 12.0913C595.479 16.9952 591.58 18.7524 588.467 20.3541C581.545 23.917 574.239 26.6391 566.726 28.6927C553.322 32.3544 539.985 36.3166 526.183 38.2966C523.451 38.7044 520.718 39.3077 517.921 39.2152C499.82 40.2431 481.75 41.9772 463.589 41.4727C460.776 41.3992 457.867 41.8553 455.179 40.5352Z" fill="#E0D5EA"/>
<path d="M613.991 10.9511L611.326 12.3321C607.87 14.7535 604.419 12.8849 600.959 12.3321C597.905 11.8444 594.878 9.97786 591.75 12.0777L591.891 12.0147C588.608 11.342 587.351 8.33833 585.316 6.04297L613.991 10.9511Z" fill="#E4D7ED"/>
<path d="M454.069 51.6569C500.274 48.4683 546.312 44.0394 591.154 31.6335C601.76 28.6908 612.383 25.5987 622.42 20.9471C624.203 20.121 626.402 19.8834 627.417 17.8382C623.825 12.4004 619.44 13.3694 614.776 16.0494C587.87 31.5158 558.495 37.7692 527.859 39.3036C526.362 39.8838 525.126 40.0078 525.17 37.807C546.674 34.4691 568.183 31.1501 588.86 23.9529C593.295 22.4079 597.718 20.8588 601.874 18.6601C605.811 16.5771 609.678 14.3553 614.05 13.2539C616.081 10.3952 619.055 12.6527 621.472 11.8855C628.115 10.8219 631.85 15.3684 635.877 19.3517C621.777 24.8631 607.637 30.2609 593.081 34.4859C548.668 45.8366 503.455 51.2849 457.714 52.9139C456.362 52.895 454.411 54.6186 454.069 51.6569Z" fill="#E4D7ED"/>
<path d="M614.046 13.2528C605.131 20.2902 594.682 23.9728 583.988 27.2582C564.841 33.1438 545.397 37.2552 525.307 37.869C525.008 37.5873 524.943 37.3645 525.107 37.1964C525.159 37.1345 525.223 37.084 525.296 37.0478C525.368 37.0117 525.447 36.9907 525.528 36.9862C546.65 32.5825 567.819 28.2735 587.487 18.9807C589.728 17.9297 595.696 17.6017 591.746 12.0756C591.712 9.72354 591.801 8.5401 595.139 9.32204C600.452 10.5685 605.737 12.3867 611.324 12.3279L614.046 13.2528Z" fill="#453564"/>
<path d="M635.873 19.3515C630.332 18.29 627.32 12.3498 621.47 11.8853L618.622 10.0713C618.702 9.78959 618.78 9.50793 618.858 9.23047L639.949 14.7629C640.317 15.5448 640.684 16.3267 641.05 17.1087C639.711 18.7482 637.601 18.6095 635.873 19.3515Z" fill="#453564"/>
<path d="M427.945 108.05L430.51 108.35C429.741 110.101 428.338 109.284 427.39 109.29C412.574 109.397 397.767 109.448 382.955 110.387C377.069 110.759 376.327 113.54 376.285 118.185C376.153 132.75 373.439 146.634 364.426 158.575C362.431 161.217 360.115 163.552 360.302 167.174L354.153 167.248C342.925 170.804 331.381 169.327 320.04 168.738C303.502 167.878 286.943 167.134 270.434 165.465C248.834 163.281 227.226 161.261 205.958 156.725C186.992 152.86 168.091 148.675 149.835 142.066C145.557 140.515 140.67 139.594 138.295 134.85C139.159 131.951 141.637 131.298 144.086 131.188C170.029 130.032 194.889 123.009 219.993 117.315C235.547 113.788 250.764 108.947 266.411 105.792C270.27 105.012 274.018 104.645 277.852 105.582C296.217 106.017 314.619 105.851 332.938 107.022C364.611 109.052 396.275 107.531 427.945 108.05Z" fill="#6A4266"/>
<path d="M277.864 105.587C268.826 104.645 260.708 108.757 252.399 110.953C230.9 116.629 209.252 121.673 187.601 126.676C173.751 129.871 159.708 132.723 145.339 132.723C142.789 132.723 140.435 133.085 138.682 135.168C137.061 135.937 135.912 135.261 134.962 133.964C127.851 123.586 128.866 118.459 139.418 111.367C151.311 103.38 164.904 100.509 178.763 99.6236C196.896 98.4655 214.879 101.879 232.943 102.846C245.765 103.533 258.564 105.141 271.451 104.475C273.591 104.364 275.989 103.712 277.864 105.587Z" fill="#59395E"/>
<path d="M134.955 133.963L138.676 135.167C157.722 145.019 178.651 148.702 199.2 153.627C201.17 154.098 203.158 154.493 205.138 154.924C206.847 157.97 208.922 160.921 207.616 164.729C199.589 163.508 191.582 162.113 183.53 161.099C156.637 157.711 129.957 153.137 103.529 147.109C93.8594 144.906 84.2281 142.636 74.5801 140.397C74.6284 139.893 74.6747 139.388 74.723 138.884C80.4635 138.884 86.225 139.18 91.9445 138.827C106.356 137.931 120.765 136.88 134.955 133.963Z" fill="#462E4F"/>
<path d="M207.616 164.73C206.668 161.49 204.182 158.634 205.138 154.924C254.436 163.508 304.124 167.382 354.143 167.248C351.635 170.119 347.345 170.897 345.525 174.577C325.781 174.638 306.172 172.54 286.512 171.096C278.619 170.516 270.682 170.35 262.759 169.741C246.379 168.479 230.009 167.197 213.722 164.982C211.717 164.708 209.655 164.805 207.616 164.73Z" fill="#4E3054"/>
<path d="M509.841 74.1365C520.403 71.4543 530.406 69.1022 540.302 66.3592C557.991 61.4552 576.093 57.9365 593.142 50.8487C596.411 49.4908 598.912 50.5418 601.411 52.9506C604.888 56.2991 619.204 56.215 622.544 52.9822C625.1 50.5082 623.087 47.0315 624.136 44.1181C626.027 43.4308 626.658 45.0346 627.24 46.1339C628.489 48.4861 630.219 49.4172 632.783 48.7131C635.726 47.9017 636.405 45.7409 636.146 43.0104C636.071 42.1969 636.146 41.3709 636.146 40.5511C636.134 38.5794 636.31 36.6771 638.967 36.8201C641.216 36.9399 641.979 38.447 642.263 40.5259C643.356 48.5512 639.436 54.649 631.11 57.0054C614.622 61.6675 597.764 64.6145 580.892 67.4564C560.179 70.9436 539.304 72.8774 518.318 73.6404C515.72 73.7329 513.319 75.7172 509.841 74.1365Z" fill="#1C142F"/>
<path d="M454.069 51.6562L457.716 52.9069C453.169 54.6831 448.402 53.9306 443.74 53.9747C428.37 54.1156 412.996 54.0273 397.618 53.466C416.443 52.9153 435.267 52.6295 454.069 51.6562Z" fill="#9B8DB0"/>
</svg>
